<?xml version="1.0" encoding="UTF-8"?>
<svg version="1.1" xmlns="http://www.w3.org/2000/svg" width="1406" height="2270">
<path d="M0 0 C21.18819451 5.49861257 40.68353085 13.79149273 60 24 C61.59213938 24.83262149 63.18456936 25.66468764 64.77734375 26.49609375 C67.8213292 28.0898017 70.85942624 29.69413912 73.89453125 31.3046875 C80.07485286 34.57786325 86.28868412 37.78615271 92.5 41 C100.13847173 44.95402622 107.77025459 48.91897284 115.375 52.9375 C122.83029313 56.87355006 130.30733747 60.76717005 137.79351807 64.64407349 C139.02511817 65.28194082 140.25653303 65.92016599 141.48773193 66.55880737 C145.01186852 68.38774761 145.01186852 68.38774761 148.54853821 70.19226074 C151.65049691 71.76230408 154.68956485 73.38736508 157.6887207 75.14672852 C167.84786034 80.93346133 177.28755173 82.53944087 188.86331177 83.45355225 C192.92920995 83.7760843 196.98693344 84.17319184 201.0466156 84.56530762 C203.10468551 84.7635134 205.16309036 84.95827231 207.22181702 85.14953613 C216.20477916 85.98837532 225.1347968 87.07804039 234.0625 88.375 C234.75960083 88.47617126 235.45670166 88.57734253 236.17492676 88.68157959 C282.36604606 95.46669312 327.68623047 106.31458011 372 121 C373.07233887 121.35255859 374.14467773 121.70511719 375.24951172 122.06835938 C408.776058 133.14694512 441.3799118 146.69025233 472.78320312 162.86279297 C475.37552187 164.19264106 477.97726388 165.50334592 480.578125 166.81640625 C509.54341809 181.54624424 537.55954001 198.43649943 563.89941406 217.48486328 C566.10001063 219.07213691 568.31085205 220.64433267 570.5234375 222.21484375 C579.72209613 228.7674733 588.65463354 235.56720639 597.40576172 242.70556641 C599.60698737 244.49284028 601.83611048 246.24422941 604.0625 248 C613.14644794 255.2701813 621.92332244 262.93560826 630.5234375 270.76953125 C632.59972275 272.63949794 634.69612326 274.47928884 636.8046875 276.3125 C647.8164405 285.93400958 658.27244231 296.17908684 668.625 306.5 C669.45354492 307.32395264 670.28208984 308.14790527 671.13574219 308.99682617 C675.37689036 313.24874524 679.45778966 317.57535739 683.37353516 322.12841797 C685.95723025 325.1014901 688.67253227 327.94782627 691.375 330.8125 C696.1224122 335.88135512 700.62158629 341.07684005 704.96484375 346.5 C706.87023067 348.84059046 708.84420891 351.0806811 710.875 353.3125 C715.73052675 358.71607631 720.13902346 364.45506294 724.58984375 370.19140625 C725.93532839 371.91705553 727.29276003 373.6323071 728.65625 375.34375 C760.2275138 415.01634123 787.3500001 458.1961921 811 503 C811.56960449 504.07217773 812.13920898 505.14435547 812.72607422 506.24902344 C831.33695128 541.33501899 847.18680172 577.60834858 860.32678223 615.08184814 C861.00348802 617.00993817 861.6847186 618.9363903 862.36621094 620.86279297 C883.72377533 681.45872849 896.29460512 744.72961433 901.6875 808.6875 C901.77890762 809.76425491 901.77890762 809.76425491 901.87216187 810.86276245 C903.64495106 832.04260711 904.2380654 853.18636059 904.25 874.4375 C904.25100708 875.69646088 904.25201416 876.95542175 904.25305176 878.25253296 C904.24001252 902.60158193 903.15416436 926.75043126 901 951 C900.92974609 951.80215942 900.85949219 952.60431885 900.78710938 953.43078613 C892.90042529 1042.75946086 871.76762031 1130.59220618 845 1216 C844.69124939 1216.98599182 844.38249878 1217.97198364 844.06439209 1218.987854 C828.5732578 1268.39417386 811.89416686 1317.41443779 794.67578125 1366.24316406 C789.07022074 1382.1456801 783.52332008 1398.06875806 778 1414 C777.67495483 1414.93670532 777.34990967 1415.87341064 777.01501465 1416.83850098 C762.23290978 1459.4577218 748.15383647 1502.27195105 737 1546 C736.83346924 1546.64870056 736.66693848 1547.29740112 736.49536133 1547.96575928 C730.15905244 1572.6533794 724.92766681 1597.53405954 721.625 1622.8125 C721.45718018 1624.08722168 721.28936035 1625.36194336 721.11645508 1626.67529297 C720.27361925 1633.48802639 719.76776514 1640.13517736 720 1647 C721.258125 1647.02578125 722.51625 1647.0515625 723.8125 1647.078125 C743.90132375 1647.66601359 761.65619365 1651.0886738 776.78125 1665.55078125 C786.49075903 1676.26884844 790.94270209 1688.45556889 791.3515625 1702.73828125 C791.37525909 1703.48419022 791.39895569 1704.23009918 791.42337036 1704.99861145 C791.49726058 1707.4364387 791.56256423 1709.87435347 791.625 1712.3125 C791.64679321 1713.14803406 791.66858643 1713.98356812 791.69104004 1714.84442139 C791.9924262 1726.94510448 792.05531402 1739.02424678 791.75 1751.125 C791.73081512 1752.13187363 791.73081512 1752.13187363 791.71124268 1753.15908813 C791.33383454 1771.44927949 787.0194321 1784.9579254 774 1798 C773.43410156 1798.5775 772.86820313 1799.155 772.28515625 1799.75 C759.74547098 1811.52320084 740.89231771 1815.17088408 724.2421875 1814.96484375 C722.43814453 1814.96000977 722.43814453 1814.96000977 720.59765625 1814.95507812 C718.10765942 1814.94332053 715.61758867 1814.89619817 713.12890625 1814.81445312 C706.32600405 1814.75057183 706.32600405 1814.75057183 700.70043945 1818.10400391 C698.90013157 1820.65926424 697.42252521 1823.21963421 696 1826 C695.33871094 1826.9796875 694.67742187 1827.959375 693.99609375 1828.96875 C679.91447117 1851.83815209 677.83089285 1880.0191656 683.49072266 1905.86669922 C687.3138017 1921.88111183 693.57957762 1945.42810527 708 1955 C711.37485023 1956.92010342 714.83674491 1958.64597112 718.3125 1960.375 C743.69790028 1973.31729869 767.31658635 1988.82193846 790 2006 C790.99870117 2006.74660889 790.99870117 2006.74660889 792.01757812 2007.50830078 C809.8230779 2020.90808074 828.42027961 2037.79806164 840 2057 C840.5048291 2057.81581543 841.0096582 2058.63163086 841.52978516 2059.47216797 C851.56502525 2075.69507576 851.56502525 2075.69507576 853 2080 C853.61818604 2080.03963867 854.23637207 2080.07927734 854.87329102 2080.12011719 C878.76536585 2081.72548723 901.58701992 2085.58795932 918.28125 2104.59765625 C951.34665678 2147.47164452 931 2241.6079171 931 2270 C467.02 2270 3.04 2270 -475 2270 C-475 2123.50095859 -475 2123.50095859 -455.828125 2103.53515625 C-445.27432838 2094.07463967 -432.70478662 2088.31926934 -419.0625 2084.8125 C-418.04663818 2084.5494104 -418.04663818 2084.5494104 -417.01025391 2084.28100586 C-413.70636753 2083.47700475 -410.79250654 2082.9926294 -407.37109375 2082.87109375 C-403.76087251 2082.74141025 -401.28540976 2082.52925841 -398 2081 C-394.92919572 2076.63204564 -393.02012871 2072.01420078 -390.96679688 2067.10986328 C-388.44614921 2061.60899533 -384.60895301 2056.82048431 -381 2052 C-380.38769531 2051.175 -379.77539062 2050.35 -379.14453125 2049.5 C-366.76581023 2033.45253224 -351.95460188 2019.78843982 -335.92724609 2007.48583984 C-333.91715151 2005.93612669 -331.92104433 2004.36953266 -329.92578125 2002.80078125 C-311.53708654 1988.42346634 -291.60616183 1976.23181698 -271.02734375 1965.23828125 C-270.44134903 1964.92509445 -269.85535431 1964.61190765 -269.25160217 1964.28923035 C-266.39268637 1962.76503305 -263.52766524 1961.25385372 -260.65454102 1959.7565918 C-243.54695961 1950.73873428 -237.30962869 1936.57569662 -231.5859375 1918.65234375 C-222.79535151 1890.16970925 -221.96460737 1860.39878772 -235 1833 C-237.1899753 1828.90548439 -239.47249987 1824.89585591 -242 1821 C-242.84062988 1819.69784546 -242.84062988 1819.69784546 -243.69824219 1818.36938477 C-245.81932158 1815.73943347 -245.81932158 1815.73943347 -249.0300293 1815.38818359 C-250.19961182 1815.39156738 -251.36919434 1815.39495117 -252.57421875 1815.3984375 C-254.52352295 1815.37861816 -254.52352295 1815.37861816 -256.51220703 1815.35839844 C-257.19462463 1815.36158081 -257.87704224 1815.36476318 -258.58013916 1815.36804199 C-262.10783725 1815.37968962 -265.63341851 1815.30238208 -269.16015625 1815.2265625 C-269.84909973 1815.21294678 -270.53804321 1815.19933105 -271.24786377 1815.18530273 C-291.50338485 1814.70934833 -309.69122267 1808.46458606 -323.89453125 1793.6328125 C-334.56470172 1780.29015035 -336.47907425 1764.3387758 -336.36328125 1747.765625 C-336.36276045 1746.35227458 -336.36328662 1744.93892344 -336.36479187 1743.52557373 C-336.36470307 1740.59099239 -336.35446153 1737.65669107 -336.33618164 1734.72216797 C-336.31341326 1730.98825615 -336.31297574 1727.2547486 -336.31969929 1723.52078629 C-336.3230615 1720.61230972 -336.31636845 1717.70392299 -336.30657005 1714.79546356 C-336.30276282 1713.41935447 -336.3015509 1712.04323531 -336.3031559 1710.66712189 C-336.3062544 1694.79831881 -333.78893657 1680.28443273 -323 1668 C-322.24976563 1667.11054688 -322.24976563 1667.11054688 -321.484375 1666.203125 C-312.03380442 1655.8350233 -296.81361719 1649.56972923 -283 1648 C-279.20707517 1647.8887233 -275.41910833 1647.90567845 -271.625 1647.9375 C-270.60277344 1647.94201172 -269.58054687 1647.94652344 -268.52734375 1647.95117188 C-266.01816806 1647.962897 -263.5091151 1647.97930824 -261 1648 C-261.04640625 1646.90171875 -261.0928125 1645.8034375 -261.140625 1644.671875 C-263.20701263 1570.82982609 -237.69131049 1491.96503003 -206.41357422 1425.98291016 C-204.96423222 1422.92452318 -203.53081747 1419.85896651 -202.09765625 1416.79296875 C-192.77427417 1396.97847407 -182.62268686 1377.57040133 -171 1359 C-170.5045166 1358.20480957 -170.0090332 1357.40961914 -169.49853516 1356.59033203 C-153.36024738 1330.75654261 -136.07947358 1305.75401035 -117 1282 C-116.49114258 1281.36497559 -115.98228516 1280.72995117 -115.45800781 1280.07568359 C-105.00866407 1267.05688117 -94.25674385 1254.3297437 -83 1242 C-81.77603516 1240.65421875 -81.77603516 1240.65421875 -80.52734375 1239.28125 C-78.19975094 1236.73083902 -75.86418987 1234.18832369 -73.52197266 1231.65136719 C-72.51161009 1230.55510597 -71.50344893 1229.45681153 -70.49755859 1228.35644531 C-60.27401974 1217.18180461 -49.57333669 1206.49933676 -38.81079102 1195.84765625 C-33.52618323 1190.60706316 -28.31426374 1185.38786678 -23.49023438 1179.71289062 C-20.97742581 1176.82464277 -18.23646886 1174.17416386 -15.5 1171.5 C-11.48358294 1167.52839889 -7.59586135 1163.53037675 -3.9375 1159.22265625 C-1.19805794 1156.08003018 1.65433779 1153.04633067 4.5 1150 C8.4952879 1145.71752795 12.4458365 1141.41393665 16.26953125 1136.9765625 C18.43037207 1134.50842377 20.65437702 1132.10195991 22.875 1129.6875 C26.92201296 1125.25100008 30.74883302 1120.68728652 34.51953125 1116.015625 C37.44968702 1112.45329389 40.46772148 1108.9753771 43.5 1105.5 C48.0409162 1100.29030216 52.49230117 1095.02562233 56.83984375 1089.65234375 C59.11041855 1086.8644228 61.42883982 1084.12089897 63.75 1081.375 C68.29484422 1075.93240877 72.61994963 1070.3438085 76.90356445 1064.6940918 C79.72257266 1060.97628127 82.55796989 1057.27531207 85.44921875 1053.61328125 C94.06801801 1042.69242382 102.13579306 1031.47410619 110 1020 C110.68529785 1019.00484375 111.3705957 1018.0096875 112.07666016 1016.984375 C121.35291146 1003.50688496 130.43272683 989.9403041 139 976 C139.38526855 975.37577148 139.77053711 974.75154297 140.16748047 974.10839844 C175.73184321 916.31044157 207.41326483 851.06280165 214.4765625 782.6875 C215.42306793 773.63074213 217.72731527 766.96761649 222 759 C221.67 758.67 221.34 758.34 221 758 C220.47792969 758.65484375 219.95585938 759.3096875 219.41796875 759.984375 C214.3820797 766.22852465 209.15753652 772.2045627 203.69921875 778.078125 C201.19512409 780.78878029 198.75073155 783.5427361 196.3125 786.3125 C192.46919959 790.58358826 188.41587405 794.33443375 184 798 C183.11699219 798.75925781 182.23398437 799.51851562 181.32421875 800.30078125 C167.83137061 811.79204132 153.34053128 821.14809452 138 830 C137.34950684 830.37898437 136.69901367 830.75796875 136.02880859 831.1484375 C65.98347704 871.61991878 -24.73380125 877.92091466 -103.96484375 874.6640625 C-104.68495636 874.63554703 -105.40506897 874.60703156 -106.14700317 874.57765198 C-109.55725063 874.44042293 -112.96319923 874.28310235 -116.37109375 874.0925293 C-117.56734375 874.03750244 -118.76359375 873.98247559 -119.99609375 873.92578125 C-121.03950928 873.86817627 -122.0829248 873.81057129 -123.15795898 873.7512207 C-128.9862089 874.2613991 -132.73426297 878.39284842 -136.8125 882.25 C-137.87826816 883.24287288 -138.94467448 884.23506119 -140.01171875 885.2265625 C-140.52524902 885.70512695 -141.0387793 886.18369141 -141.56787109 886.67675781 C-143.39066778 888.36096477 -145.25050187 889.99865336 -147.125 891.625 C-161.9739857 904.53847636 -176.19606081 918.10480461 -190.125 932 C-190.86150284 932.73262054 -190.86150284 932.73262054 -191.61288452 933.4800415 C-196.73697489 938.58276226 -201.75091695 943.72066749 -206.45751953 949.21240234 C-208.85110076 951.98635007 -211.36889014 954.64063767 -213.875 957.3125 C-218.37981232 962.15556001 -222.6656197 967.11854177 -226.8046875 972.28125 C-229.07012393 975.08684387 -231.40763462 977.82095338 -233.75 980.5625 C-239.87272755 987.8712047 -245.34814055 995.64486523 -250.85180664 1003.42456055 C-252 1005 -252 1005 -253 1006 C-274.85964333 1007.16465313 -296.80106341 1004.27023655 -318 999 C-318.83450684 998.79536133 -319.66901367 998.59072266 -320.52880859 998.37988281 C-350.83598406 990.78748424 -377.03855485 975.88593291 -399.56347656 954.36914062 C-400.95598613 953.04194932 -402.36448908 951.7316017 -403.7734375 950.421875 C-415.71154606 938.99686566 -425.05849892 925.43635302 -433 911 C-433.33451172 910.39285156 -433.66902344 909.78570313 -434.01367188 909.16015625 C-447.92620738 883.50468143 -458.20892095 856.1996106 -450 827 C-444.87867346 810.73451347 -435.38152996 796.66142081 -425.62890625 782.84375 C-420.53918831 775.50707308 -415.85576062 767.88851051 -411.05859375 760.359375 C-405.94061294 752.32767436 -400.74381571 744.34829508 -395.54150391 736.37109375 C-394.03503311 734.05388686 -392.53759339 731.73111165 -391.04296875 729.40625 C-381.31920872 714.30895759 -371.22037749 699.46795731 -361.10925293 684.62872314 C-360.13595325 683.19962102 -359.16405408 681.76956528 -358.19238281 680.33935547 C-351.52248035 670.52202618 -344.63122618 660.87798859 -337.65283203 651.27783203 C-336.02266407 649.03123424 -334.39880925 646.78022874 -332.77734375 644.52734375 C-326.09351929 635.24193945 -319.34692401 626.00530844 -312.546875 616.8046875 C-310.15316363 613.56590345 -307.76840871 610.3208071 -305.390625 607.0703125 C-299.25295156 598.68847138 -293.038474 590.39372886 -286.578125 582.2578125 C-284.01671754 579.0319798 -281.50402412 575.77047152 -279 572.5 C-274.18149802 566.21487304 -269.29285507 559.9864322 -264.39111328 553.76611328 C-262.09125763 550.84628952 -259.79584055 547.92298107 -257.5 545 C-256.5833549 543.83331639 -255.66668823 542.66664973 -254.75 541.5 C-254.29625 540.9225 -253.8425 540.345 -253.375 539.75 C-251.3125 537.125 -251.3125 537.125 -249.25 534.5 C-248.7964917 533.9227417 -248.3429834 533.3454834 -247.87573242 532.75073242 C-246.95688297 531.58142108 -246.0377739 530.4123137 -245.1184082 529.2434082 C-242.85798928 526.36880151 -240.60185229 523.49106035 -238.35546875 520.60546875 C-233.8777601 514.86393053 -229.34529863 509.17963627 -224.69799805 503.57397461 C-221.7851404 500.06036689 -218.88952223 496.53281002 -216 493 C-215.52691406 492.42443359 -215.05382812 491.84886719 -214.56640625 491.25585938 C-213.3192968 489.72565238 -212.09637513 488.175825 -210.875 486.625 C-209.88113281 485.37589844 -209.88113281 485.37589844 -208.8671875 484.1015625 C-203.90661652 475.86161824 -202.13188169 466.76028131 -200.625 457.375 C-200.31755859 455.53869019 -200.31755859 455.53869019 -200.00390625 453.6652832 C-198.30652295 443.42070562 -196.85275921 433.14081317 -195.38269043 422.86172485 C-186.39803486 360.07732431 -186.39803486 360.07732431 -165.3359375 344.17578125 C-164.02000693 343.21532152 -162.69940822 342.26123549 -161.375 341.3125 C-160.62774658 340.77560547 -159.88049316 340.23871094 -159.1105957 339.68554688 C-139.92517313 326.03820394 -120.15664629 313.16013538 -100 301 C-99.00661621 300.39849121 -98.01323242 299.79698242 -96.98974609 299.17724609 C-77.5365259 287.40569237 -77.5365259 287.40569237 -69.19140625 282.7109375 C-68.3008252 282.20771973 -67.41024414 281.70450195 -66.49267578 281.18603516 C-64.82882459 280.25093361 -63.15943966 279.32558938 -61.48388672 278.41162109 C-59.60700989 277.35709791 -57.79454837 276.18923587 -56 275 C-56 270.83635722 -57.99149287 268.02715346 -60 264.5 C-60.44005371 263.71737793 -60.88010742 262.93475586 -61.33349609 262.12841797 C-65.66133012 254.48683379 -70.15656113 246.9439035 -74.65283203 239.40063477 C-79.86605584 230.65433051 -84.97178149 221.85386223 -90 213 C-95.32258199 203.62985758 -100.73721856 194.32204938 -106.25 185.0625 C-111.19121712 176.75509759 -116.11213801 168.43786582 -120.9375 160.0625 C-121.43991211 159.19826416 -121.94232422 158.33402832 -122.45996094 157.44360352 C-122.91532227 156.64881592 -123.37068359 155.85402832 -123.83984375 155.03515625 C-124.23550537 154.3481665 -124.63116699 153.66117676 -125.03881836 152.95336914 C-126.01012721 150.97941889 -126.55144179 149.14797873 -127 147 C-117.10637373 140.14158651 -107.00207459 133.9750713 -96.39208984 128.28857422 C-93.98679193 126.99288506 -91.5969242 125.67150507 -89.20703125 124.34765625 C-69.11717815 113.35946968 -47.93104599 105.10403959 -26.25 97.875 C-25.54862915 97.64071289 -24.8472583 97.40642578 -24.12463379 97.16503906 C-16.81890919 94.73854553 -9.56339339 92.48269166 -2 91 C-2.07064667 90.33337341 -2.14129333 89.66674683 -2.21408081 88.97991943 C-2.87750446 82.3045517 -3.14720823 75.72117144 -3.1328125 69.015625 C-3.13424759 67.48938507 -3.13424759 67.48938507 -3.13571167 65.93231201 C-3.13638786 63.78771909 -3.134573 61.64312406 -3.13037109 59.49853516 C-3.12508226 56.29975487 -3.13030046 53.10111936 -3.13671875 49.90234375 C-3.1405739 39.37860808 -2.99642535 28.87453445 -2.5546875 18.359375 C-2.51594513 17.41862122 -2.47720276 16.47786743 -2.43728638 15.50860596 C-1.79668076 1.79668076 -1.79668076 1.79668076 0 0 Z " fill="#000000" transform="translate(475,0)"/>
<path d="M0 0 C21.18819451 5.49861257 40.68353085 13.79149273 60 24 C61.59213938 24.83262149 63.18456936 25.66468764 64.77734375 26.49609375 C67.8213292 28.0898017 70.85942624 29.69413912 73.89453125 31.3046875 C80.07485286 34.57786325 86.28868412 37.78615271 92.5 41 C100.13847173 44.95402622 107.77025459 48.91897284 115.375 52.9375 C122.83029313 56.87355006 130.30733747 60.76717005 137.79351807 64.64407349 C139.02511817 65.28194082 140.25653303 65.92016599 141.48773193 66.55880737 C145.01186852 68.38774761 145.01186852 68.38774761 148.54853821 70.19226074 C151.65049691 71.76230408 154.68956485 73.38736508 157.6887207 75.14672852 C167.84786034 80.93346133 177.28755173 82.53944087 188.86331177 83.45355225 C192.92920995 83.7760843 196.98693344 84.17319184 201.0466156 84.56530762 C203.10468551 84.7635134 205.16309036 84.95827231 207.22181702 85.14953613 C216.20477916 85.98837532 225.1347968 87.07804039 234.0625 88.375 C234.75960083 88.47617126 235.45670166 88.57734253 236.17492676 88.68157959 C282.36604606 95.46669312 327.68623047 106.31458011 372 121 C373.07233887 121.35255859 374.14467773 121.70511719 375.24951172 122.06835938 C408.776058 133.14694512 441.3799118 146.69025233 472.78320312 162.86279297 C475.37552187 164.19264106 477.97726388 165.50334592 480.578125 166.81640625 C509.54341809 181.54624424 537.55954001 198.43649943 563.89941406 217.48486328 C566.10001063 219.07213691 568.31085205 220.64433267 570.5234375 222.21484375 C579.72209613 228.7674733 588.65463354 235.56720639 597.40576172 242.70556641 C599.60698737 244.49284028 601.83611048 246.24422941 604.0625 248 C613.14644794 255.2701813 621.92332244 262.93560826 630.5234375 270.76953125 C632.59972275 272.63949794 634.69612326 274.47928884 636.8046875 276.3125 C647.8164405 285.93400958 658.27244231 296.17908684 668.625 306.5 C669.45354492 307.32395264 670.28208984 308.14790527 671.13574219 308.99682617 C675.37689036 313.24874524 679.45778966 317.57535739 683.37353516 322.12841797 C685.95723025 325.1014901 688.67253227 327.94782627 691.375 330.8125 C696.1224122 335.88135512 700.62158629 341.07684005 704.96484375 346.5 C706.87023067 348.84059046 708.84420891 351.0806811 710.875 353.3125 C715.73052675 358.71607631 720.13902346 364.45506294 724.58984375 370.19140625 C725.93532839 371.91705553 727.29276003 373.6323071 728.65625 375.34375 C760.2275138 415.01634123 787.3500001 458.1961921 811 503 C811.56960449 504.07217773 812.13920898 505.14435547 812.72607422 506.24902344 C831.33695128 541.33501899 847.18680172 577.60834858 860.32678223 615.08184814 C861.00348802 617.00993817 861.6847186 618.9363903 862.36621094 620.86279297 C883.72377533 681.45872849 896.29460512 744.72961433 901.6875 808.6875 C901.77890762 809.76425491 901.77890762 809.76425491 901.87216187 810.86276245 C903.64495106 832.04260711 904.2380654 853.18636059 904.25 874.4375 C904.25100708 875.69646088 904.25201416 876.95542175 904.25305176 878.25253296 C904.24001252 902.60158193 903.15416436 926.75043126 901 951 C900.92974609 951.80215942 900.85949219 952.60431885 900.78710938 953.43078613 C892.90042529 1042.75946086 871.76762031 1130.59220618 845 1216 C844.69124939 1216.98599182 844.38249878 1217.97198364 844.06439209 1218.987854 C828.5732578 1268.39417386 811.89416686 1317.41443779 794.67578125 1366.24316406 C789.07022074 1382.1456801 783.52332008 1398.06875806 778 1414 C777.67495483 1414.93670532 777.34990967 1415.87341064 777.01501465 1416.83850098 C762.23290978 1459.4577218 748.15383647 1502.27195105 737 1546 C736.83346924 1546.64870056 736.66693848 1547.29740112 736.49536133 1547.96575928 C730.15905244 1572.6533794 724.92766681 1597.53405954 721.625 1622.8125 C721.45718018 1624.08722168 721.28936035 1625.36194336 721.11645508 1626.67529297 C720.27361925 1633.48802639 719.76776514 1640.13517736 720 1647 C721.258125 1647.02578125 722.51625 1647.0515625 723.8125 1647.078125 C743.90132375 1647.66601359 761.65619365 1651.0886738 776.78125 1665.55078125 C786.49075903 1676.26884844 790.94270209 1688.45556889 791.3515625 1702.73828125 C791.37525909 1703.48419022 791.39895569 1704.23009918 791.42337036 1704.99861145 C791.49726058 1707.4364387 791.56256423 1709.87435347 791.625 1712.3125 C791.64679321 1713.14803406 791.66858643 1713.98356812 791.69104004 1714.84442139 C791.9924262 1726.94510448 792.05531402 1739.02424678 791.75 1751.125 C791.73081512 1752.13187363 791.73081512 1752.13187363 791.71124268 1753.15908813 C791.33383454 1771.44927949 787.0194321 1784.9579254 774 1798 C773.43410156 1798.5775 772.86820313 1799.155 772.28515625 1799.75 C759.74547098 1811.52320084 740.89231771 1815.17088408 724.2421875 1814.96484375 C722.43814453 1814.96000977 722.43814453 1814.96000977 720.59765625 1814.95507812 C718.10765942 1814.94332053 715.61758867 1814.89619817 713.12890625 1814.81445312 C706.32600405 1814.75057183 706.32600405 1814.75057183 700.70043945 1818.10400391 C698.90013157 1820.65926424 697.42252521 1823.21963421 696 1826 C695.33871094 1826.9796875 694.67742187 1827.959375 693.99609375 1828.96875 C679.91447117 1851.83815209 677.83089285 1880.0191656 683.49072266 1905.86669922 C687.3138017 1921.88111183 693.57957762 1945.42810527 708 1955 C711.37485023 1956.92010342 714.83674491 1958.64597112 718.3125 1960.375 C743.69790028 1973.31729869 767.31658635 1988.82193846 790 2006 C790.99870117 2006.74660889 790.99870117 2006.74660889 792.01757812 2007.50830078 C809.8230779 2020.90808074 828.42027961 2037.79806164 840 2057 C840.5048291 2057.81581543 841.0096582 2058.63163086 841.52978516 2059.47216797 C851.56502525 2075.69507576 851.56502525 2075.69507576 853 2080 C853.61818604 2080.03963867 854.23637207 2080.07927734 854.87329102 2080.12011719 C878.76536585 2081.72548723 901.58701992 2085.58795932 918.28125 2104.59765625 C951.34665678 2147.47164452 931 2241.6079171 931 2270 C467.02 2270 3.04 2270 -475 2270 C-475 2269.34 -475 2268.68 -475 2268 C-22.57 2268 429.86 2268 896 2268 C905.83527431 2193.33427685 905.83527431 2193.33427685 879.96875 2098.7421875 C865.12509028 2084.59768567 847.11498617 2083.54490659 827.75 2083.3125 C825.82940471 2083.27926329 823.90883077 2083.24476797 821.98828125 2083.20898438 C817.32564008 2083.12481478 812.66304117 2083.05766674 808 2083 C807.47398193 2081.99549805 806.94796387 2080.99099609 806.40600586 2079.95605469 C805.69663048 2078.61123387 804.98706632 2077.26651262 804.27734375 2075.921875 C803.76077209 2074.93356689 803.76077209 2074.93356689 803.23376465 2073.92529297 C792.15229764 2052.98576321 774.96571841 2034.29057225 757 2019 C756.05382813 2018.16597656 755.10765625 2017.33195312 754.1328125 2016.47265625 C731.26383743 1996.476376 704.85910235 1980.22674064 678.3125 1965.625 C658.11272636 1954.44996394 650.03955942 1940.1219148 643.56298828 1918.04345703 C637.07765617 1894.50389513 633.79412649 1867.4603074 642 1844 C642.3700415 1842.93217285 642.3700415 1842.93217285 642.74755859 1841.84277344 C646.22949948 1832.10017888 650.55548542 1821.44451458 658 1814 C661.13475836 1813.90095308 664.25142527 1813.86283056 667.38671875 1813.859375 C669.37956824 1813.84099463 671.37240699 1813.8214198 673.36523438 1813.80078125 C676.49098125 1813.77224003 679.61605927 1813.75001142 682.74194336 1813.74951172 C703.26563847 1813.72629674 728.00154936 1812.37290285 744 1797.6875 C756.45988233 1783.47005241 758.15144405 1765.79788468 758.16796875 1747.62109375 C758.17129715 1746.33622574 758.17462555 1745.05135773 758.17805481 1743.72755432 C758.18401625 1741.01359213 758.18589799 1738.29966163 758.18530273 1735.58569336 C758.18520172 1732.15256227 758.19880409 1728.71964083 758.21607494 1725.2865591 C758.2300531 1721.96056877 758.22928875 1718.6346129 758.23046875 1715.30859375 C758.23765427 1714.09868271 758.24483978 1712.88877167 758.25224304 1711.64219666 C758.20337704 1692.99098024 755.64363945 1676.29050831 742.3828125 1662.29296875 C734.5819684 1654.9213577 724.23870763 1652.19783776 714 1650 C712.06502482 1584.42584101 731.5566184 1517.33104085 751.19140625 1455.28125 C751.45252449 1454.45548525 751.71364273 1453.6297205 751.98267365 1452.77893257 C758.19847418 1433.17729363 764.73881629 1413.68322192 771.265625 1394.18359375 C771.83039213 1392.4957911 772.39515359 1390.80798655 772.95990944 1389.12018013 C778.22771744 1373.37892109 783.50200051 1357.63983595 788.78759766 1341.90454102 C805.75440256 1291.45229565 805.75440256 1291.45229565 821.703125 1240.671875 C822.03267433 1239.58400129 822.36222366 1238.49612759 822.70175934 1237.37528801 C829.75869828 1213.9954461 836.15855216 1190.43336341 842.27661133 1166.79205322 C842.95070791 1164.19025201 843.62990018 1161.58983993 844.31054688 1158.98974609 C856.88653065 1110.77450369 865.0373142 1061.43542079 871 1012 C871.10940918 1011.10071777 871.21881836 1010.20143555 871.33154297 1009.27490234 C876.26812018 968.02576223 876.34454672 926.4755019 876 885 C875.9937561 884.22597839 875.98751221 883.45195679 875.9810791 882.65447998 C875.20715709 797.84100726 857.14618267 712.38348261 831 632 C830.76085876 631.2630188 830.52171753 630.5260376 830.27532959 629.76672363 C818.7918786 594.45699815 805.21650696 559.86367886 790 526 C789.46810059 524.80600586 788.93620117 523.61201172 788.38818359 522.38183594 C768.87986672 478.72677921 742.29752098 438.68663845 713 401 C712.51644043 400.37464355 712.03288086 399.74928711 711.53466797 399.10498047 C706.16539769 392.16294984 700.68028631 385.34534516 694.97509766 378.67602539 C692.16833332 375.39481511 689.44163986 372.06465114 686.75 368.6875 C682.25627715 363.15551628 677.40140723 357.99305161 672.49121094 352.83276367 C671.8830957 352.19314697 671.27498047 351.55353027 670.6484375 350.89453125 C670.11395996 350.33612549 669.57948242 349.77771973 669.02880859 349.20239258 C667.23963785 347.26014116 665.51376456 345.28163074 663.78930664 343.28222656 C659.94098492 338.87122354 655.86641399 334.72205155 651.72265625 330.58984375 C650.95247665 329.81870743 650.18229706 329.04757111 649.38877869 328.25306702 C647.77058627 326.63419847 646.15114788 325.01657449 644.53051758 323.40014648 C642.06932768 320.94431282 639.61352191 318.48318635 637.15820312 316.02148438 C635.57584133 314.43978347 633.99316933 312.85839283 632.41015625 311.27734375 C631.68594986 310.55111313 630.96174347 309.82488251 630.21559143 309.0766449 C626.17782402 305.0571238 622.04779741 301.20500994 617.72784424 297.48973083 C615.33042039 295.42269485 613.0125103 293.27283222 610.6875 291.125 C606.21775728 287.0482017 601.6241437 283.18522563 596.9140625 279.390625 C594.87604436 277.71868518 592.87781713 276.03480709 590.8984375 274.296875 C581.81256179 266.32405292 572.28728017 259.05831486 562.55810547 251.88916016 C560.07401821 250.05466243 557.60024309 248.20709423 555.12890625 246.35546875 C544.65394853 238.53113729 533.97980063 231.09802901 523 224 C521.87174805 223.26982666 521.87174805 223.26982666 520.72070312 222.52490234 C438.36226709 169.43274997 346.41817807 133.17871192 249.8125 116.5625 C249.05143951 116.43085449 248.29037903 116.29920898 247.5062561 116.16357422 C245.34493654 115.79210797 243.18258521 115.42762235 241.01953125 115.06640625 C239.78307861 114.85959229 238.54662598 114.65277832 237.27270508 114.43969727 C234.45673041 114.06136303 231.83402303 113.90836334 229 114 C231.97793079 115.71049381 234.95741273 117.41826615 237.9375 119.125 C239.34757324 119.93263794 239.34757324 119.93263794 240.78613281 120.7565918 C246.88458318 124.24163502 253.00706308 127.67968172 259.14819336 131.08886719 C270.77540755 137.54995591 282.22607069 144.2573981 293.60546875 151.14453125 C299.12653756 154.48445812 304.68070847 157.76523624 310.24316406 161.03564453 C322.38661765 168.18158667 334.35097349 175.55101435 346.18847656 183.19189453 C349.16744483 185.10768465 352.15674817 187.00648564 355.1484375 188.90234375 C368.95738393 197.66516048 382.56153582 206.67933126 396 216 C396.85964355 216.59554687 397.71928711 217.19109375 398.60498047 217.8046875 C416.95076613 230.53314019 434.97549447 243.61998957 452.68359375 257.22265625 C454.67066537 258.74730648 456.66184082 260.26622262 458.65625 261.78125 C466.63059674 267.86070246 474.41693246 274.15571003 482.17529297 280.50732422 C483.78223696 281.82186202 485.39279191 283.13198302 487.00390625 284.44140625 C496.77859669 292.39490254 506.4179936 300.48629114 515.74609375 308.9609375 C517.7688269 310.79086247 519.81369435 312.58881728 521.875 314.375 C526.77657146 318.65042261 531.56063953 323.05309652 536.33740234 327.46679688 C537.99803172 328.99818491 539.66489298 330.52257896 541.33203125 332.046875 C549.23396487 339.30939694 556.90239061 346.79655011 564.5 354.375 C565.43183105 355.30223877 566.36366211 356.22947754 567.32373047 357.18481445 C571.90351093 361.77491903 576.33840235 366.4210193 580.56054688 371.34228516 C582.28389216 373.32693822 584.10952226 375.17471115 586 377 C589.8799727 380.83554553 593.45857014 384.85244079 597 389 C597.90594952 390.05364385 598.81222583 391.10700677 599.71875 392.16015625 C602.30957591 395.17237899 604.89136705 398.19222095 607.47119141 401.21386719 C608.89627954 402.87882164 610.32803478 404.53776082 611.76171875 406.1953125 C618.58655488 414.12197167 624.97122194 422.34380736 631.26123047 430.69921875 C633.02848607 433.03769344 634.81173553 435.36325792 636.59765625 437.6875 C662.51549536 471.58849993 683.37976994 508.48188671 703.42626953 546.05224609 C704.85105182 548.72100522 706.28234833 551.3861581 707.71484375 554.05078125 C713.67398743 565.18972471 719.19880959 576.51421893 724.56591797 587.94921875 C725.52663227 589.9929855 726.49184909 592.03464146 727.46142578 594.07421875 C739.19906953 618.76548121 749.50914454 644.00254438 758 670 C758.3295166 671.00385742 758.6590332 672.00771484 758.99853516 673.04199219 C772.19625919 713.60085142 778.87396993 754.99670981 784.36572266 797.15039062 C784.91133002 801.33654954 785.47333851 805.52016862 786.04296875 809.703125 C786.32055505 811.76038395 786.59792631 813.81767194 786.875 815.875 C786.99512451 816.75236816 787.11524902 817.62973633 787.23901367 818.53369141 C787.79119893 822.72483301 788.12269592 826.76017421 788 831 C785.52896075 828.52896075 785.31942019 826.92223059 784.51171875 823.53515625 C784.08125244 821.78054077 784.08125244 821.78054077 783.64208984 819.99047852 C783.4881073 819.35457794 783.33412476 818.71867737 783.17547607 818.06350708 C767.59230188 754.16274732 744.00462058 692.41692315 716 633 C715.49436523 631.92556641 714.98873047 630.85113281 714.46777344 629.74414062 C707.97364616 615.98071405 701.26368045 602.3736327 694 589 C693.42797852 587.94361328 692.85595703 586.88722656 692.26660156 585.79882812 C683.14826259 568.99915125 673.68024238 552.45032914 663.83691406 536.06396484 C662.10787263 533.17993108 660.39137632 530.28888845 658.6796875 527.39453125 C653.15464976 518.07238679 647.46495622 508.91533184 641.34667969 499.97070312 C639.87245428 497.81335224 638.40878291 495.64903466 636.9453125 493.484375 C617.51307698 464.82153336 596.6192382 437.11794425 573.265625 411.51171875 C571.37552361 409.41631325 569.51605809 407.3007684 567.6640625 405.171875 C558.84517507 395.07650774 549.52175109 385.43125864 540.0625 375.9375 C539.37752441 375.24793213 538.69254883 374.55836426 537.98681641 373.84790039 C534.080916 369.95383604 530.06654036 366.24842177 525.89086914 362.64575195 C523.09057442 360.2084651 520.39482277 357.66439697 517.6875 355.125 C512.87244557 350.64579841 507.93468156 346.3923023 502.8046875 342.2734375 C500.25701104 340.20832928 497.75729171 338.10053102 495.2668457 335.9675293 C488.36497794 330.06117257 481.2815033 324.43156453 474 319 C473.40815918 318.5555957 472.81631836 318.11119141 472.20654297 317.65332031 C449.5391585 300.70762719 425.69686283 284.8210962 401 271 C400.08089844 270.48211914 399.16179688 269.96423828 398.21484375 269.43066406 C355.08086061 245.2374878 309.07236322 225.51720524 260.85620117 214.05322266 C259.8272876 213.80620605 258.79837402 213.55918945 257.73828125 213.3046875 C256.84149658 213.09827637 255.94471191 212.89186523 255.02075195 212.67919922 C253 212 253 212 252 210 C272.79 203.565 272.79 203.565 294 197 C294.2312139 194.72763934 294.2312139 194.72763934 291.8671875 192.78515625 C290.87659324 191.87018508 289.87857016 190.9632198 288.875 190.0625 C288.33294922 189.57233398 287.79089844 189.08216797 287.23242188 188.57714844 C281.06476486 183.06854962 274.58329861 177.99866286 268 173 C267.24654297 172.42733398 266.49308594 171.85466797 265.71679688 171.26464844 C240.99751721 152.52069101 215.63233849 134.71208832 189.94836426 117.31951904 C188.55944768 116.37888288 187.17071427 115.43797623 185.78210449 114.49688721 C161.25889313 97.87718442 136.65359558 81.3954969 111.84509277 65.20446777 C110.07884232 64.05146789 108.31320516 62.89753653 106.54785156 61.74316406 C101.67478718 58.55687295 96.79879931 55.37540038 91.9140625 52.20703125 C88.84546146 50.21391871 85.79869614 48.19495713 82.7734375 46.13671875 C70.13218137 37.60696135 56.60941199 30.84069915 43 24 C41.95489258 23.47325684 40.90978516 22.94651367 39.83300781 22.40380859 C34.23154688 19.58310533 28.62095808 16.78163718 23 14 C18.96991899 22.06016202 20.81704026 35.23713776 20.76171875 44.13671875 C20.75206085 45.44384323 20.74240295 46.75096771 20.73245239 48.09770203 C20.70551883 52.29429106 20.69455082 56.49083607 20.6875 60.6875 C20.68511133 61.75756664 20.68511133 61.75756664 20.68267441 62.84925079 C20.64039592 85.15215209 21.4373379 106.9464029 25 129 C25.24499341 130.73379949 25.48634619 132.46812068 25.72265625 134.203125 C27.54690225 146.97830471 30.79275279 159.51487221 34 172 C34.20351074 172.79825195 34.40702148 173.59650391 34.61669922 174.41894531 C39.11043908 191.72042437 45.95102479 208.57891684 55 224 C58.64815697 223.4013642 61.99182841 222.33672248 65.46435547 221.08325195 C94.30138112 210.79641693 124.58698155 207.89997708 155 207 C152.40110912 209.59889088 149.90343806 210.33651898 146.46484375 211.65234375 C145.09728248 212.18078334 143.7297716 212.70935338 142.36230469 213.23803711 C141.64119507 213.51469208 140.92008545 213.79134705 140.17712402 214.0763855 C115.99940702 223.37249168 92.53657864 233.98045172 69.28955078 245.38671875 C66.37237243 246.81737888 63.45056796 248.23800351 60.52734375 249.65625 C47.7191802 255.91509747 35.3406061 262.87007297 23 270 C22.20932129 270.45407227 21.41864258 270.90814453 20.60400391 271.37597656 C-15.01257422 291.85027011 -51.82952543 315.82952543 -81 345 C-87.80479637 345.32926434 -87.80479637 345.32926434 -90.80078125 344.50390625 C-110.53430563 339.98237047 -132.10294828 348.36698848 -148.609375 358.58203125 C-151 360 -151 360 -154 361 C-155.09800725 362.73379897 -155.09800725 362.73379897 -156 365 C-156.67675781 366.43085937 -156.67675781 366.43085937 -157.3671875 367.890625 C-162.88785762 380.1905636 -165.7047009 392.72276745 -167.8984375 405.98046875 C-168.07137329 407.021996 -168.24430908 408.06352325 -168.42248535 409.13661194 C-170.48954834 421.75768516 -172.21554909 434.42742544 -173.92724609 447.10083008 C-175.31945641 457.37096083 -176.71783267 467.60285235 -179.05859375 477.70703125 C-179.21432861 478.38563705 -179.37006348 479.06424286 -179.53051758 479.76341248 C-180.9369482 485.48176724 -183.2199366 489.55332791 -187 494 C-188.21042969 495.45212891 -188.21042969 495.45212891 -189.4453125 496.93359375 C-191.3080014 499.15243472 -193.18927598 501.35419484 -195.078125 503.55078125 C-198.43941465 507.48456146 -201.62334446 511.54723903 -204.8034668 515.62768555 C-208.16898061 519.94575943 -211.57293008 524.2306327 -215 528.5 C-224.24746758 540.03525639 -233.3332367 551.69535615 -242.40234375 563.37109375 C-244.74506776 566.38696341 -247.09136583 569.39998458 -249.44140625 572.41015625 C-262.62981584 589.3113878 -275.60945619 606.35805931 -288.27783203 623.65283203 C-290.02290613 626.03121911 -291.77407617 628.40499134 -293.52734375 630.77734375 C-323.29202012 671.05493009 -351.62573302 712.32550774 -378.546875 754.55859375 C-379.82282645 756.55995335 -381.09887083 758.56125371 -382.375 760.5625 C-383.34469727 762.08363403 -383.34469727 762.08363403 -384.33398438 763.63549805 C-391.48086032 774.81139985 -398.78774124 785.88196058 -406.10693359 796.94555664 C-415.76402834 811.22476519 -415.76402834 811.22476519 -423.25 826.6875 C-423.72953125 827.90824219 -424.2090625 829.12898437 -424.703125 830.38671875 C-433.88514844 855.96916359 -427.08704555 880.66003 -415.98046875 904.40625 C-414.08620981 908.32503612 -412.06310878 912.16807281 -410 916 C-409.38640625 917.16660156 -408.7728125 918.33320312 -408.140625 919.53515625 C-400.34107503 933.82895961 -390.26256091 946.30426367 -379 958 C-378.4225 958.6290625 -377.845 959.258125 -377.25 959.90625 C-362.99190711 975.01982847 -343.99455292 985.09342432 -326 995 C-329.61084751 996.80542376 -333.37642792 994.60237513 -337.046875 993.41796875 C-360.86647379 985.10278525 -381.39929169 971.72036599 -399.56347656 954.36914062 C-400.95598613 953.04194932 -402.36448908 951.7316017 -403.7734375 950.421875 C-415.71154606 938.99686566 -425.05849892 925.43635302 -433 911 C-433.33451172 910.39285156 -433.66902344 909.78570313 -434.01367188 909.16015625 C-447.92620738 883.50468143 -458.20892095 856.1996106 -450 827 C-444.87867346 810.73451347 -435.38152996 796.66142081 -425.62890625 782.84375 C-420.53918831 775.50707308 -415.85576062 767.88851051 -411.05859375 760.359375 C-405.94061294 752.32767436 -400.74381571 744.34829508 -395.54150391 736.37109375 C-394.03503311 734.05388686 -392.53759339 731.73111165 -391.04296875 729.40625 C-381.31920872 714.30895759 -371.22037749 699.46795731 -361.10925293 684.62872314 C-360.13595325 683.19962102 -359.16405408 681.76956528 -358.19238281 680.33935547 C-351.52248035 670.52202618 -344.63122618 660.87798859 -337.65283203 651.27783203 C-336.02266407 649.03123424 -334.39880925 646.78022874 -332.77734375 644.52734375 C-326.09351929 635.24193945 -319.34692401 626.00530844 -312.546875 616.8046875 C-310.15316363 613.56590345 -307.76840871 610.3208071 -305.390625 607.0703125 C-299.25295156 598.68847138 -293.038474 590.39372886 -286.578125 582.2578125 C-284.01671754 579.0319798 -281.50402412 575.77047152 -279 572.5 C-274.18149802 566.21487304 -269.29285507 559.9864322 -264.39111328 553.76611328 C-262.09125763 550.84628952 -259.79584055 547.92298107 -257.5 545 C-256.5833549 543.83331639 -255.66668823 542.66664973 -254.75 541.5 C-254.29625 540.9225 -253.8425 540.345 -253.375 539.75 C-251.3125 537.125 -251.3125 537.125 -249.25 534.5 C-248.7964917 533.9227417 -248.3429834 533.3454834 -247.87573242 532.75073242 C-246.95688297 531.58142108 -246.0377739 530.4123137 -245.1184082 529.2434082 C-242.85798928 526.36880151 -240.60185229 523.49106035 -238.35546875 520.60546875 C-233.8777601 514.86393053 -229.34529863 509.17963627 -224.69799805 503.57397461 C-221.7851404 500.06036689 -218.88952223 496.53281002 -216 493 C-215.52691406 492.42443359 -215.05382812 491.84886719 -214.56640625 491.25585938 C-213.3192968 489.72565238 -212.09637513 488.175825 -210.875 486.625 C-209.88113281 485.37589844 -209.88113281 485.37589844 -208.8671875 484.1015625 C-203.90661652 475.86161824 -202.13188169 466.76028131 -200.625 457.375 C-200.31755859 455.53869019 -200.31755859 455.53869019 -200.00390625 453.6652832 C-198.30652295 443.42070562 -196.85275921 433.14081317 -195.38269043 422.86172485 C-186.39803486 360.07732431 -186.39803486 360.07732431 -165.3359375 344.17578125 C-164.02000693 343.21532152 -162.69940822 342.26123549 -161.375 341.3125 C-160.62774658 340.77560547 -159.88049316 340.23871094 -159.1105957 339.68554688 C-139.92517313 326.03820394 -120.15664629 313.16013538 -100 301 C-99.00661621 300.39849121 -98.01323242 299.79698242 -96.98974609 299.17724609 C-77.5365259 287.40569237 -77.5365259 287.40569237 -69.19140625 282.7109375 C-68.3008252 282.20771973 -67.41024414 281.70450195 -66.49267578 281.18603516 C-64.82882459 280.25093361 -63.15943966 279.32558938 -61.48388672 278.41162109 C-59.60700989 277.35709791 -57.79454837 276.18923587 -56 275 C-56 270.83635722 -57.99149287 268.02715346 -60 264.5 C-60.44005371 263.71737793 -60.88010742 262.93475586 -61.33349609 262.12841797 C-65.66133012 254.48683379 -70.15656113 246.9439035 -74.65283203 239.40063477 C-79.86605584 230.65433051 -84.97178149 221.85386223 -90 213 C-95.32258199 203.62985758 -100.73721856 194.32204938 -106.25 185.0625 C-111.19121712 176.75509759 -116.11213801 168.43786582 -120.9375 160.0625 C-121.43991211 159.19826416 -121.94232422 158.33402832 -122.45996094 157.44360352 C-122.91532227 156.64881592 -123.37068359 155.85402832 -123.83984375 155.03515625 C-124.23550537 154.3481665 -124.63116699 153.66117676 -125.03881836 152.95336914 C-126.01012721 150.97941889 -126.55144179 149.14797873 -127 147 C-117.10637373 140.14158651 -107.00207459 133.9750713 -96.39208984 128.28857422 C-93.98679193 126.99288506 -91.5969242 125.67150507 -89.20703125 124.34765625 C-69.11717815 113.35946968 -47.93104599 105.10403959 -26.25 97.875 C-25.54862915 97.64071289 -24.8472583 97.40642578 -24.12463379 97.16503906 C-16.81890919 94.73854553 -9.56339339 92.48269166 -2 91 C-2.07064667 90.33337341 -2.14129333 89.66674683 -2.21408081 88.97991943 C-2.87750446 82.3045517 -3.14720823 75.72117144 -3.1328125 69.015625 C-3.13424759 67.48938507 -3.13424759 67.48938507 -3.13571167 65.93231201 C-3.13638786 63.78771909 -3.134573 61.64312406 -3.13037109 59.49853516 C-3.12508226 56.29975487 -3.13030046 53.10111936 -3.13671875 49.90234375 C-3.1405739 39.37860808 -2.99642535 28.87453445 -2.5546875 18.359375 C-2.51594513 17.41862122 -2.47720276 16.47786743 -2.43728638 15.50860596 C-1.79668076 1.79668076 -1.79668076 1.79668076 0 0 Z " fill="#BFCACA" transform="translate(475,0)"/>
<path d="M0 0 C1.11195781 -0.00085442 2.22391562 -0.00170885 3.36956912 -0.00258917 C7.06669345 -0.00422611 10.76377163 0.00124799 14.46089172 0.00672913 C17.12257997 0.00701141 19.78426546 0.00689641 22.44595337 0.00628662 C28.16160236 0.00576418 33.87723987 0.00888161 39.59288597 0.01452446 C47.8565849 0.02267756 56.12027833 0.02525858 64.38398085 0.02651245 C77.79373553 0.028697 91.2034841 0.03534086 104.61323547 0.04481506 C117.63374298 0.05400465 130.65424882 0.06107791 143.67475891 0.06532288 C144.47835776 0.0655856 145.28195661 0.06584832 146.10990693 0.06611901 C150.14162918 0.06742412 154.17335145 0.06868781 158.20507371 0.06993091 C191.6123723 0.08028492 225.01966349 0.09788695 258.42695618 0.12025452 C255.70478512 2.84242557 252.89582879 2.8204498 249.23945618 3.37025452 C236.35610639 5.56924619 225.05659731 10.42960356 214.42695618 18.12025452 C213.77211243 18.59076233 213.11726868 19.06127014 212.44258118 19.54603577 C206.21673212 24.43580659 201.93581993 31.102527 198.42695618 38.12025452 C372.33695618 38.45025452 546.24695618 38.78025452 725.42695618 39.12025452 C715.01547715 21.76778947 702.02677626 11.61827685 682.42695618 6.12025452 C678.44203903 5.21675301 674.439979 4.47722829 670.41133118 3.79603577 C667.42695618 3.12025452 667.42695618 3.12025452 665.42695618 1.12025452 C718.13351697 1.05154077 770.84007322 0.99870155 823.54667002 0.96705853 C829.77361118 0.96330655 836.00055225 0.95942357 842.22749329 0.95545959 C843.46712975 0.95467266 844.70676622 0.95388573 845.98396743 0.95307495 C866.03812815 0.94003224 886.09226299 0.91638464 906.14640837 0.88879613 C926.73418477 0.86071038 947.32194764 0.84407155 967.90974241 0.83798903 C980.60655339 0.83387917 993.30329119 0.82091315 1006.00007964 0.79650512 C1014.7147498 0.7806088 1023.42938231 0.77586297 1032.14406591 0.77975038 C1037.16685799 0.78166587 1042.1895225 0.77879481 1047.21229172 0.76263809 C1051.82141846 0.74792111 1056.43033315 0.74737778 1061.03947014 0.75755783 C1062.69656271 0.75881397 1064.35366912 0.75510902 1066.01073491 0.74560497 C1091.52601426 0.60791283 1115.92300919 6.42495982 1134.94648743 24.43275452 C1138.80214026 28.61021774 1141.68689956 33.15831818 1144.42695618 38.12025452 C1145.32414368 39.72900452 1145.32414368 39.72900452 1146.23945618 41.37025452 C1148.37202325 46.30883089 1150.67766792 51.77630433 1149.42695618 57.12025452 C1142.53968809 63.38004916 1135.11933682 65.42671873 1125.9708873 65.37325418 C1124.70673955 65.37783382 1124.70673955 65.37783382 1123.41705346 65.38250599 C1120.58053259 65.39032705 1117.74422352 65.38386541 1114.90770149 65.37752342 C1112.84979292 65.38021564 1110.79188534 65.3837828 1108.73397964 65.38814789 C1103.04802108 65.39763878 1097.36212629 65.39459462 1091.67616452 65.38959235 C1085.50195581 65.38633563 1079.32776102 65.39459996 1073.1535567 65.4014107 C1062.32216211 65.41173673 1051.49079107 65.4146194 1040.65939331 65.41249847 C1029.03536368 65.41025099 1017.41134686 65.41231276 1005.78731918 65.4196434 C1004.68671356 65.42033236 1004.68671356 65.42033236 1003.56387348 65.42103524 C1000.57555379 65.42291848 997.58723412 65.42482985 994.59891447 65.42677762 C963.41041928 65.4470764 932.22193127 65.45318995 901.03343023 65.45436184 C897.6754261 65.45449133 894.31742196 65.45462721 890.95941782 65.45476866 C890.12614653 65.45480267 889.29287523 65.45483668 888.4343533 65.45487172 C869.97760697 65.45568827 851.52086202 65.46006693 833.06411642 65.46508035 C825.46678091 65.46713702 817.86944539 65.46911707 810.27210987 65.47111285 C809.01299208 65.47144462 809.01299208 65.47144462 807.72843756 65.47178309 C759.61974054 65.48443297 711.51104442 65.49268112 663.40234566 65.49176598 C661.60157201 65.49173442 659.80079837 65.49170295 658.00002472 65.49167156 C649.86947518 65.49152479 641.73892565 65.49134845 633.60837611 65.49116379 C629.98267151 65.49108154 626.35696692 65.49100125 622.73126232 65.49092116 C620.91653112 65.49088037 619.10179991 65.49083833 617.28706871 65.49079504 C559.89309489 65.48943431 502.49914574 65.50407268 445.10517883 65.53187561 C430.64327057 65.53887745 416.18136227 65.54581628 401.71945381 65.5524044 C400.82901821 65.55281015 399.9385826 65.5532159 399.0211641 65.55363394 C371.58508779 65.56606037 344.1490135 65.57359437 316.71293449 65.57612038 C315.85178137 65.57620028 314.99062825 65.57628018 314.10337959 65.5763625 C295.20066639 65.57806891 276.29795332 65.57859149 257.39524006 65.57802175 C250.63183265 65.57782878 243.86842523 65.57772469 237.10501782 65.57766429 C235.42240768 65.57764846 233.73979753 65.57762805 232.05718739 65.57760304 C205.22778643 65.57725015 178.39840656 65.58865618 151.56901165 65.60591068 C124.55329356 65.62319672 97.53760471 65.62760492 70.52188342 65.61438803 C66.7910541 65.61256336 63.06022472 65.61087683 59.32939529 65.609272 C58.59803295 65.60895183 57.86667061 65.60863165 57.11314578 65.60830178 C45.51986739 65.60359071 33.92663948 65.61232254 22.33337059 65.62661438 C10.94119312 65.64037826 -0.45089023 65.63959251 -11.84307301 65.6242301 C-17.94025994 65.61642075 -24.03726715 65.61504774 -30.13444184 65.63114481 C-35.67625458 65.64564824 -41.2177371 65.6418943 -46.75953487 65.62329707 C-48.75662754 65.61984147 -50.75374571 65.62315324 -52.75081245 65.63389949 C-55.45637092 65.64748828 -58.16076355 65.63650245 -60.86627662 65.61934984 C-61.63923774 65.62914908 -62.41219886 65.63894831 -63.20858305 65.6490445 C-70.20497593 65.55641949 -75.48217753 62.81099676 -81.07304382 58.74525452 C-83.57304382 56.12025452 -83.57304382 56.12025452 -83.91679382 53.44056702 C-83.49850142 49.40024271 -82.22327053 46.03688899 -80.57304382 42.37025452 C-80.25762634 41.66505676 -79.94220886 40.95985901 -79.61723328 40.23329163 C-73.036685 26.10670298 -61.56276792 15.71156683 -47.57304382 9.12025452 C-46.13445007 8.44156311 -46.13445007 8.44156311 -44.66679382 7.74916077 C-30.22592474 1.3457754 -15.62104664 -0.04467449 0 0 Z " fill="#253A3E" transform="translate(175.5730438232422,2081.8797454833984)"/>
<path d="M0 0 C0.33 0 0.66 0 1 0 C1.1282587 6.63570033 0.69062471 12.98739871 -0.1875 19.5625 C-0.3205957 20.55918701 -0.45369141 21.55587402 -0.59082031 22.58276367 C-8.52863502 79.32393247 -30.43616738 131.44659428 -62 179 C-62.73863281 180.1132666 -62.73863281 180.1132666 -63.4921875 181.24902344 C-69.81608935 190.7217742 -76.52948677 199.88206433 -83.43212891 208.93945312 C-85.04870532 211.0640101 -86.65565348 213.19561396 -88.26171875 215.328125 C-94.14224374 223.10966302 -100.16991557 230.70099954 -106.52734375 238.09765625 C-108.7021688 240.65041299 -110.80209457 243.23951064 -112.875 245.875 C-120.98826819 256.09539511 -129.7363864 265.79543176 -138.58984375 275.375 C-140.57410867 277.53614429 -142.5189006 279.71839708 -144.4375 281.9375 C-148.94204205 287.12358032 -153.62613326 292.14488555 -158.30371094 297.17431641 C-159.44403453 298.40162496 -160.58268122 299.63049351 -161.71972656 300.86083984 C-169.86885965 309.67812031 -178.18611664 318.28972416 -186.74658203 326.7097168 C-190.74087221 330.65659567 -194.5194746 334.69589494 -198.18212891 338.95068359 C-201.60632765 342.81083996 -205.28078178 346.4242968 -208.9375 350.0625 C-209.69740234 350.82626953 -210.45730469 351.59003906 -211.24023438 352.37695312 C-214.63351668 355.7644399 -218.03642123 359.07894699 -221.69140625 362.18359375 C-228.14627496 367.74135324 -234.01403435 373.94849458 -240 380 C-254.28013564 394.43648749 -254.28013564 394.43648749 -260.4609375 399.68359375 C-262.41556838 401.35544808 -264.21411819 403.15033669 -266 405 C-268.55990134 407.59982183 -271.1677954 410.06268398 -273.9375 412.4375 C-276.92801716 415.00665271 -279.73116684 417.69317256 -282.5 420.5 C-285.88241399 423.9288279 -289.38070442 427.12048518 -293.03515625 430.25390625 C-295.73378361 432.65209001 -298.24314575 435.21611524 -300.75 437.8125 C-302.61815934 439.62876603 -304.51770489 441.31241829 -306.49609375 443.00390625 C-311.72201974 447.54498063 -316.59015425 452.4401707 -321.47290039 457.3425293 C-323.05959946 458.93458966 -324.65157742 460.5212299 -326.24414062 462.10742188 C-331.70703723 467.5667497 -336.98917929 473.11893815 -342 479 C-343.45445517 480.60768373 -344.91220895 482.21239715 -346.375 483.8125 C-350.21928245 488.07745308 -353.89526905 492.4486085 -357.50390625 496.9140625 C-359.31198156 499.14939817 -361.13112763 501.37188205 -362.96484375 503.5859375 C-421.204399 574.13315926 -461.32977717 659.14374074 -497 841 C-515.81 841 -534.62 841 -554 841 C-553.10702733 831.17730067 -551.74570597 821.67880678 -550 812 C-549.80809082 810.92202148 -549.61618164 809.84404297 -549.41845703 808.73339844 C-539.53537275 753.76302835 -523.59124893 699.66976508 -500.29980469 648.84814453 C-498.99510312 645.98926992 -497.71715693 643.1197192 -496.4453125 640.24609375 C-491.46753563 629.04995753 -486.13019896 618.12228554 -480.27978516 607.35644531 C-478.9832128 604.96909003 -477.70035103 602.57468954 -476.41796875 600.1796875 C-459.89798118 569.52891633 -440.77619426 540.00129501 -419.26074219 512.60791016 C-417.94082099 510.92452498 -416.63012883 509.23422547 -415.3203125 507.54296875 C-404.15256204 493.16798802 -392.19245314 479.51055618 -380 466 C-379.41774658 465.33540771 -378.83549316 464.67081543 -378.2355957 463.98608398 C-371.74972503 456.64738935 -364.87756153 449.72509809 -357.94311523 442.81274414 C-355.93422136 440.80923014 -353.93075611 438.80039848 -351.92773438 436.79101562 C-345.78643133 430.64647491 -339.63542273 424.61489571 -333 419 C-331.02468353 417.226127 -329.07657504 415.42520634 -327.125 413.625 C-323.4570732 410.24842625 -319.77575959 406.88933908 -316.0625 403.5625 C-310.54870443 398.61241516 -305.11087042 393.58180428 -299.67333984 388.54833984 C-297.49003354 386.52812849 -295.30430652 384.5105496 -293.11816406 382.4934082 C-292.03771135 381.49625533 -290.95763424 380.49869534 -289.87792969 379.50073242 C-287.16388897 376.99273358 -284.444751 374.49072619 -281.71484375 372 C-275.28551194 366.12134404 -269.04001419 360.11653377 -262.94921875 353.88671875 C-260.80152138 351.73347624 -258.56241692 349.73295103 -256.25563049 347.75144958 C-252.33920734 344.33778889 -248.62703768 340.76888255 -244.96069336 337.09008789 C-244.3075264 336.43867325 -243.65435944 335.78725861 -242.98139954 335.11610413 C-240.84837925 332.98744251 -238.71898793 330.8551943 -236.58984375 328.72265625 C-235.09361603 327.22710329 -233.59723999 325.73169871 -232.10072327 324.23643494 C-228.97494547 321.11212601 -225.85096945 317.98602966 -222.72827148 314.85864258 C-218.74185878 310.86653311 -214.75097285 306.87893053 -210.75871944 302.892663 C-207.67097963 299.80855071 -204.58564278 296.72204331 -201.50100899 293.63482475 C-200.03105452 292.16420708 -198.56036759 290.69432113 -197.08891106 289.22520638 C-195.02680376 287.16566174 -192.96796801 285.10289875 -190.90991211 283.03930664 C-190.01273972 282.14517059 -190.01273972 282.14517059 -189.09744263 281.23297119 C-185.41410361 277.53141763 -181.92876651 273.70254344 -178.52330875 269.74361324 C-176.61294004 267.55696252 -174.58351552 265.52132103 -172.5 263.5 C-169.19392653 260.23275625 -166.09254539 256.87984369 -163.0703125 253.3515625 C-160.87294711 250.85568709 -158.61053084 248.43194129 -156.33447266 246.00805664 C-151.07245521 240.40410576 -146.04936049 234.71550157 -141.2421875 228.7109375 C-138.76092188 225.71094039 -136.15111811 222.84869713 -133.5 220 C-129.24464062 215.42075151 -125.22676844 210.70713412 -121.3046875 205.8359375 C-119.24153104 203.29720599 -117.14058673 200.80063535 -115.01538086 198.31420898 C-109.26190912 191.58279859 -103.7367865 184.69704874 -98.31445312 177.69677734 C-97.07237036 176.09342013 -95.8253966 174.49385532 -94.578125 172.89453125 C-70.77377225 142.20558629 -48.84359831 110.35661709 -30.22753906 76.24658203 C-29.42586803 74.77940286 -28.62068003 73.31413839 -27.81152344 71.85107422 C-19.01130773 55.92423547 -12.37625945 39.55949098 -6.625 22.3125 C-6.40772247 21.66125153 -6.19044495 21.01000305 -5.96658325 20.33901978 C-3.73174357 13.60964674 -1.58291131 6.91436535 0 0 Z " fill="#7A8E8D" transform="translate(841,766)"/>
<path d="M0 0 C1.61751295 0.00056537 3.23502641 0.00024511 4.85253906 -0.00088501 C9.20710742 -0.00145463 13.56156372 0.01023589 17.91610622 0.02426291 C22.48046221 0.03683589 27.04482127 0.03794591 31.60919189 0.04031372 C40.23614644 0.0465093 48.8630498 0.06289389 57.48998189 0.0830127 C67.31836101 0.1054318 77.14674269 0.1163802 86.97514105 0.12640357 C107.17779178 0.14726198 127.38039656 0.18240027 147.58300781 0.22705078 C144.5080938 1.83902309 141.49698922 2.87991693 138.15161133 3.82373047 C125.81138189 7.34826195 114.5508344 12.77839906 106.58300781 23.22705078 C104.60300781 26.85705078 102.62300781 30.48705078 100.58300781 34.22705078 C336.69800781 33.73205078 336.69800781 33.73205078 577.58300781 33.22705078 C577.58300781 27.57166905 573.33294419 23.17023166 569.67285156 19.10595703 C559.24124349 9.10331228 544.86152198 3.27415057 530.51660156 2.53564453 C529.55947266 2.38289063 529.55947266 2.38289063 528.58300781 2.22705078 C528.25300781 1.56705078 527.92300781 0.90705078 527.58300781 0.22705078 C569.86027269 0.15831455 612.13753109 0.10548643 654.41484082 0.07385479 C659.41132626 0.07010288 664.4078116 0.06621989 669.40429688 0.06225586 C670.39896524 0.06146893 671.39363361 0.060682 672.41844344 0.05987122 C688.5028359 0.04683382 704.58719603 0.02318919 720.67156935 -0.00440761 C737.18790584 -0.03250822 753.70422546 -0.04913531 770.22058487 -0.0552147 C780.40383695 -0.0593215 790.58699765 -0.07227068 800.77022159 -0.09669862 C807.76272312 -0.11261334 814.75517774 -0.11733665 821.74769604 -0.11345335 C825.77597083 -0.11154069 829.80408646 -0.11437596 833.83233261 -0.13056564 C884.11916746 -0.32238953 884.11916746 -0.32238953 903.27050781 16.60205078 C904.03363281 17.46830078 904.79675781 18.33455078 905.58300781 19.22705078 C906.13601563 19.78908203 906.68902344 20.35111328 907.25878906 20.93017578 C914.00580727 28.0383834 917.30136175 35.5636098 918.58300781 45.22705078 C858.09550596 45.32314939 797.60800358 45.41891296 737.12049866 45.51306152 C736.21484243 45.51447126 735.3091862 45.515881 734.37608584 45.51733346 C714.65954443 45.54802223 694.94300293 45.57865579 675.22646135 45.60923305 C665.54737721 45.62424412 655.86829309 45.63926731 646.18920898 45.65429688 C645.22639318 45.65579172 644.26357738 45.65728656 643.27158534 45.6588267 C612.4687687 45.70665596 581.66595337 45.75527337 550.86313866 45.80433213 C519.01647287 45.855049 487.16980584 45.90490588 455.32313718 45.95378688 C450.75017476 45.96080623 446.17721235 45.96783471 441.60424995 45.97486877 C440.25516082 45.9769435 440.25516082 45.9769435 438.87881735 45.97906014 C426.52633288 45.99807679 414.17384939 46.01764235 401.82136655 46.03768736 C327.71497735 46.15793448 253.60870416 46.24802673 179.5022064 46.25186598 C175.25498249 46.25210127 171.00775866 46.25258584 166.76053478 46.25315192 C117.64694371 46.25954692 68.53478554 46.187349 19.42211914 45.85473633 C11.64308693 45.80226087 3.86403386 45.75715687 -3.91506106 45.71505886 C-11.75304402 45.67242719 -19.59098579 45.62446148 -27.42892265 45.57411003 C-30.64766121 45.55354883 -33.8664015 45.53489409 -37.08516121 45.51797676 C-40.75373082 45.4985077 -44.42224009 45.47439794 -48.09075546 45.44655991 C-50.04901429 45.43281887 -52.00730446 45.42379644 -53.96559143 45.41493225 C-55.13239441 45.40514343 -56.29919739 45.39535461 -57.50135803 45.38526917 C-58.50608186 45.37881661 -59.51080568 45.37236406 -60.54597569 45.36571598 C-63.56738128 45.21978724 -66.44544698 44.78075304 -69.41699219 44.22705078 C-68.79683111 31.4103885 -62.67332944 22.86011032 -53.41699219 14.22705078 C-37.86846466 1.83025181 -19.16212047 -0.09477092 0 0 Z " fill="#798D8C" transform="translate(283.4169921875,1647.77294921875)"/>
<path d="M0 0 C52.70656079 -0.06871375 105.41311704 -0.12155297 158.11971384 -0.15319599 C164.346655 -0.15694797 170.57359608 -0.16083095 176.80053711 -0.16479492 C178.04017358 -0.16558185 179.27981004 -0.16636878 180.55701125 -0.16717956 C200.61117197 -0.18022228 220.66530681 -0.20386988 240.71945219 -0.23145839 C261.30722859 -0.25954414 281.89499147 -0.27618296 302.48278624 -0.28226548 C315.17959721 -0.28637535 327.87633502 -0.29934136 340.57312346 -0.3237494 C349.28779363 -0.33964572 358.00242613 -0.34439155 366.71710973 -0.34050413 C371.73990182 -0.33858865 376.76256632 -0.34145971 381.78533554 -0.35761642 C386.39446228 -0.37233341 391.00337697 -0.37287674 395.61251397 -0.36269668 C397.26960654 -0.36144055 398.92671294 -0.3651455 400.58377873 -0.37464955 C426.09905808 -0.51234168 450.49605301 5.30470531 469.51953125 23.3125 C473.37518408 27.48996322 476.25994338 32.03806366 479 37 C479.598125 38.0725 480.19625 39.145 480.8125 40.25 C483.19312689 45.76303069 484 49.93491448 484 56 C346.06 56 208.12 56 66 56 C64.68 51.71 63.36 47.42 62 43 C59.31606134 35.96622971 55.91399455 30.68933697 51 25 C50.23236328 24.08927734 50.23236328 24.08927734 49.44921875 23.16015625 C37.90710425 10.52970341 21.3271943 5.43914177 4.984375 2.67578125 C2 2 2 2 0 0 Z " fill="#7A8E8D" transform="translate(841,2083)"/>
<path d="M0 0 C1.32091644 0.00033989 1.32091644 0.00033989 2.66851807 0.00068665 C3.61031921 0.0161705 4.55212036 0.03165436 5.52246094 0.04760742 C6.49342712 0.05185226 7.46439331 0.05609711 8.46478271 0.06047058 C11.56241725 0.07724764 14.65939843 0.11489845 17.75683594 0.15307617 C19.85838903 0.16812425 21.95995234 0.18181244 24.06152344 0.1940918 C29.21021223 0.22714807 34.35841335 0.2789241 39.50683594 0.34057617 C38.41449286 2.05809077 37.32201888 3.77552212 36.22949219 5.49291992 C35.26873779 7.00474854 35.26873779 7.00474854 34.28857422 8.54711914 C33.03806229 10.50770526 31.77505832 12.46035283 30.50292969 14.40698242 C16.31622431 37.12704441 14.36204309 65.47078129 19.99755859 91.20727539 C23.82063764 107.221688 30.08641356 130.76868144 44.50683594 140.34057617 C47.88168617 142.26067959 51.34358085 143.98654729 54.81933594 145.71557617 C80.20473622 158.65787487 103.82342228 174.16251463 126.50683594 191.34057617 C127.17263672 191.83831543 127.8384375 192.33605469 128.52441406 192.84887695 C146.32991384 206.24865692 164.92711555 223.13863781 176.50683594 242.34057617 C177.01166504 243.1563916 177.51649414 243.97220703 178.03662109 244.81274414 C188.07186119 261.03565193 188.07186119 261.03565193 189.50683594 265.34057617 C190.12502197 265.38021484 190.74320801 265.41985352 191.38012695 265.46069336 C215.27220179 267.0660634 238.09385585 270.9285355 254.78808594 289.93823242 C287.85349272 332.81222069 267.50683594 426.94849328 267.50683594 455.34057617 C-196.47316406 455.34057617 -660.45316406 455.34057617 -1138.49316406 455.34057617 C-1138.49316406 454.68057617 -1138.49316406 454.02057617 -1138.49316406 453.34057617 C-686.06316406 453.34057617 -233.63316406 453.34057617 232.50683594 453.34057617 C242.34211025 378.67485302 242.34211025 378.67485302 216.47558594 284.08276367 C201.63192622 269.93826184 183.62182211 268.88548276 164.25683594 268.65307617 C162.33624065 268.61983946 160.41566671 268.58534414 158.49511719 268.54956055 C153.83247602 268.46539095 149.1698771 268.39824291 144.50683594 268.34057617 C143.98081787 267.33607422 143.4547998 266.33157227 142.9128418 265.29663086 C142.20346642 263.95181004 141.49390226 262.60708879 140.78417969 261.26245117 C140.26760803 260.27414307 140.26760803 260.27414307 139.74060059 259.26586914 C128.65913358 238.32633938 111.47255435 219.63114842 93.50683594 204.34057617 C92.56066406 203.50655273 91.61449219 202.6725293 90.63964844 201.81323242 C67.77067337 181.81695217 41.36593829 165.56731681 14.81933594 150.96557617 C-5.3804377 139.79054011 -13.45360465 125.46249097 -19.93017578 103.3840332 C-28.63703093 71.78109407 -29.08137893 38.60629321 -12.84863281 9.37963867 C-9.54062129 4.20406621 -6.60517664 -0.05694118 0 0 Z " fill="#BDC9C9" transform="translate(1138.4931640625,1814.659423828125)"/>
<path d="M0 0 C1.11195781 -0.00085442 2.22391562 -0.00170885 3.36956912 -0.00258917 C7.06669345 -0.00422611 10.76377163 0.00124799 14.46089172 0.00672913 C17.12257997 0.00701141 19.78426546 0.00689641 22.44595337 0.00628662 C28.16160236 0.00576418 33.87723987 0.00888161 39.59288597 0.01452446 C47.8565849 0.02267756 56.12027833 0.02525858 64.38398085 0.02651245 C77.79373553 0.028697 91.2034841 0.03534086 104.61323547 0.04481506 C117.63374298 0.05400465 130.65424882 0.06107791 143.67475891 0.06532288 C144.47835776 0.0655856 145.28195661 0.06584832 146.10990693 0.06611901 C150.14162918 0.06742412 154.17335145 0.06868781 158.20507371 0.06993091 C191.6123723 0.08028492 225.01966349 0.09788695 258.42695618 0.12025452 C255.70478512 2.84242557 252.89582879 2.8204498 249.23945618 3.37025452 C236.35610639 5.56924619 225.05659731 10.42960356 214.42695618 18.12025452 C213.77211243 18.59076233 213.11726868 19.06127014 212.44258118 19.54603577 C201.47076274 28.16328255 195.11224605 42.69380516 192.42695618 56.12025452 C101.34695618 56.12025452 10.26695618 56.12025452 -83.57304382 56.12025452 C-83.57304382 50.56020881 -82.77203649 47.25619066 -80.57304382 42.37025452 C-80.25762634 41.66505676 -79.94220886 40.95985901 -79.61723328 40.23329163 C-73.036685 26.10670298 -61.56276792 15.71156683 -47.57304382 9.12025452 C-46.13445007 8.44156311 -46.13445007 8.44156311 -44.66679382 7.74916077 C-30.22592474 1.3457754 -15.62104664 -0.04467449 0 0 Z " fill="#7A8E8D" transform="translate(175.5730438232422,2081.8797454833984)"/>
<path d="M0 0 C0.33 0.66 0.66 1.32 1 2 C89.40882636 2.63811953 177.81598681 3.09958878 266.22729492 3.11352539 C267.72314446 3.11377458 267.72314446 3.11377458 269.24921319 3.1140288 C294.24081646 3.1179551 319.23241562 3.1131586 344.22401743 3.10463549 C360.7334598 3.09900515 377.24290083 3.09587489 393.75234413 3.09487724 C394.87046228 3.0948085 395.98858043 3.09473976 397.14058094 3.09466894 C402.82538561 3.09433033 408.51019029 3.09402905 414.19499496 3.09374207 C453.83190202 3.09167517 493.468807 3.08503512 533.10571289 3.07543945 C571.46638987 3.06616388 609.82706626 3.05912585 648.18774414 3.05493164 C649.98049103 3.05473435 649.98049103 3.05473435 651.80945503 3.05453308 C663.81841098 3.05321387 675.82736694 3.05193816 687.83632291 3.05069422 C712.27152263 3.04816212 736.70672232 3.04534089 761.141922 3.04234314 C762.82491733 3.0421372 762.82491733 3.0421372 764.54191257 3.04192711 C838.69460924 3.03282065 912.84730477 3.01698818 987 3 C986.2734375 9.65625 986.2734375 9.65625 983.8125 12.75 C978.69945456 16.84043636 974.67054346 18.37485338 968.12129033 18.37719816 C967.44935428 18.38152934 966.77741824 18.38586052 966.08512049 18.39032295 C963.83074755 18.40119007 961.57698642 18.39069051 959.32261848 18.38031673 C957.68424332 18.3837495 956.04587046 18.38849579 954.40750247 18.3944377 C949.88635717 18.40699184 945.36539962 18.40077743 940.8442533 18.39160402 C935.93276035 18.38491526 931.02130052 18.39554974 926.10981452 18.40399987 C917.49545634 18.41639714 908.88115259 18.41756604 900.26678848 18.41144943 C887.4570609 18.40237812 874.64738389 18.41037449 861.8376602 18.42174067 C838.96210021 18.44143623 816.08656286 18.44374947 793.21099642 18.43854547 C789.20967041 18.43763562 785.2083444 18.436746 781.20701838 18.43590808 C780.54436776 18.43576899 779.88171715 18.4356299 779.19898621 18.43548659 C764.51870488 18.43253528 749.83842595 18.43554612 735.15814503 18.43980437 C733.14944451 18.44038652 731.14074398 18.44095537 729.13204345 18.44152 C723.74750573 18.44303493 718.36296801 18.44456184 712.97843031 18.44611301 C675.38516651 18.45687127 637.79190553 18.46156997 600.19864082 18.45364285 C599.48987093 18.45349454 598.78110104 18.45334623 598.05085327 18.45319343 C590.14715155 18.4515344 582.24344985 18.44978482 574.33974816 18.44800042 C573.62614778 18.4478394 572.9125474 18.44767837 572.17732277 18.44751247 C566.38556166 18.44620462 566.38556166 18.44620462 563.51974028 18.44555128 C517.87170681 18.43515914 472.2237119 18.44292686 426.57568359 18.46655273 C415.07353789 18.47249603 403.57139218 18.47838755 392.06924629 18.48396206 C391.36103598 18.48430583 390.65282567 18.4846496 389.92315443 18.48500379 C368.09991724 18.49552946 346.27668326 18.5011251 324.45344353 18.5015192 C323.42589337 18.50153838 323.42589337 18.50153838 322.37758461 18.50155794 C307.34039086 18.50178622 292.30319739 18.50078024 277.2660038 18.49864888 C271.88561318 18.4978941 266.50522255 18.4972159 261.12483192 18.49656873 C259.78630342 18.49640604 258.44777492 18.49623838 257.10924642 18.49606572 C236.43286894 18.49342769 215.75651466 18.50106031 195.08014297 18.51461601 C172.33350258 18.52950218 149.58691116 18.53040414 126.84027185 18.5125451 C114.10216774 18.50295659 101.3641777 18.50446885 88.62608112 18.52177979 C80.12521548 18.53222919 71.62443719 18.52822564 63.12358022 18.51229975 C58.27488001 18.50362528 53.42640416 18.50134689 48.57771505 18.51656907 C44.16873473 18.5302807 39.76017223 18.5256642 35.35121665 18.50628388 C33.76421893 18.50254096 32.17718778 18.50553021 30.59022016 18.51599697 C21.1526941 18.57396382 13.69256511 18.57224293 6.5625 11.625 C4.81963164 8.69698116 4.31375259 6.37284037 4 3 C2.68 3 1.36 3 0 3 C0 2.01 0 1.02 0 0 Z " fill="#253A3D" transform="translate(213,1690)"/>
<path d="M0 0 C0.33 0 0.66 0 1 0 C2.21052952 24.51322282 -2.00990028 49.56085711 -9 73 C-9.25088379 73.84498047 -9.50176758 74.68996094 -9.76025391 75.56054688 C-16.22065431 96.71576158 -26.11797847 117.02195277 -39 135 C-39.41459473 135.58136719 -39.82918945 136.16273438 -40.25634766 136.76171875 C-46.52215431 145.44394629 -53.60999477 153.27312844 -61 161 C-61.63679687 161.67804688 -62.27359375 162.35609375 -62.9296875 163.0546875 C-67.874285 168.18855189 -73.39350446 172.61291724 -79 177 C-79.5465625 177.42829102 -80.093125 177.85658203 -80.65625 178.29785156 C-90.86407329 186.22631431 -101.6585651 192.82085658 -113 199 C-113.6604834 199.3619043 -114.3209668 199.72380859 -115.00146484 200.09667969 C-177.4681432 233.91055116 -249.88066665 244.07307836 -319.89453125 245.26953125 C-321.09555481 245.29009079 -322.29657837 245.31065033 -323.53399658 245.33183289 C-329.49280361 245.42983073 -335.45132232 245.51214041 -341.41064453 245.57104492 C-352.76016937 245.70354066 -363.80083179 245.98201478 -375 248 C-376.19411499 248.21052002 -376.19411499 248.21052002 -377.41235352 248.42529297 C-407.71705025 254.29303494 -432.07014143 279.28620874 -451.33203125 302.11328125 C-454.18376385 305.33901157 -457.29145368 308.31009964 -460.375 311.3125 C-462.42008956 313.40628217 -464.33754253 315.51707758 -466.24609375 317.73046875 C-477.21469727 330.36968863 -489.28540537 342.36087426 -503 352 C-503.57024902 352.40395996 -504.14049805 352.80791992 -504.72802734 353.22412109 C-524.01976521 366.71059931 -546.57886941 374.444674 -570.25 370.63818359 C-581.4320809 368.29380609 -581.4320809 368.29380609 -585 364 C-583.83984375 364.32484375 -583.83984375 364.32484375 -582.65625 364.65625 C-566.27039582 369.03662686 -553.61749729 365.67749291 -539.08203125 357.4609375 C-533.35733587 354.0875275 -528.15861011 350.18999484 -523 346 C-522.12472656 345.31550781 -521.24945312 344.63101562 -520.34765625 343.92578125 C-508.29820205 334.3534542 -497.3892164 323.47220785 -486.5 312.625 C-485.24521851 311.37722778 -485.24521851 311.37722778 -483.96508789 310.10424805 C-479.66509929 305.79304471 -475.53811563 301.40301882 -471.56835938 296.78662109 C-468.51343431 293.30655546 -465.15553377 290.14010945 -461.84375 286.90625 C-459.79301661 284.86016113 -457.89391145 282.7322505 -456.015625 280.52734375 C-450.99130806 274.72994972 -445.53554383 269.34952764 -440.11328125 263.92797852 C-438.26271033 262.07522532 -436.42029924 260.21461294 -434.578125 258.35351562 C-405.99958992 229.63960425 -378.86900764 219.70630988 -338.86148071 219.46151733 C-332.66631899 219.42031782 -326.47193895 219.32556664 -320.27734375 219.234375 C-318.43549751 219.20835457 -318.43549751 219.20835457 -316.55644226 219.18180847 C-290.15114249 218.78461584 -264.06964031 217.42242535 -238 213 C-236.9260498 212.82098145 -235.85209961 212.64196289 -234.74560547 212.45751953 C-178.30264248 202.85767709 -116.48565665 184.82157991 -73 146 C-72.51241211 145.5659082 -72.02482422 145.13181641 -71.52246094 144.68457031 C-67.96642624 141.50660059 -64.47343955 138.26796848 -61 135 C-59.93652344 134.01773438 -59.93652344 134.01773438 -58.8515625 133.015625 C-23.72355687 99.46479513 -5.50807596 48.3347976 -1 1 C-0.67 0.67 -0.34 0.34 0 0 Z " fill="#798D8C" transform="translate(722,585)"/>
<path d="M0 0 C1.61751295 0.00056537 3.23502641 0.00024511 4.85253906 -0.00088501 C9.20710742 -0.00145463 13.56156372 0.01023589 17.91610622 0.02426291 C22.48046221 0.03683589 27.04482127 0.03794591 31.60919189 0.04031372 C40.23614644 0.0465093 48.8630498 0.06289389 57.48998189 0.0830127 C67.31836101 0.1054318 77.14674269 0.1163802 86.97514105 0.12640357 C107.17779178 0.14726198 127.38039656 0.18240027 147.58300781 0.22705078 C144.5080938 1.83902309 141.49698922 2.87991693 138.15161133 3.82373047 C125.81138189 7.34826195 114.5508344 12.77839906 106.58300781 23.22705078 C104.60300781 26.85705078 102.62300781 30.48705078 100.58300781 34.22705078 C338.18300781 33.73205078 338.18300781 33.73205078 580.58300781 33.22705078 C581.90300781 37.18705078 583.22300781 41.14705078 584.58300781 45.22705078 C546.01379501 45.35754555 507.44457357 45.48513965 468.87533962 45.60923305 C464.21336112 45.62423489 459.55138269 45.63925896 454.8894043 45.65429688 C453.96215247 45.65728749 453.03490064 45.6602781 452.07955027 45.66335934 C439.27658471 45.70469748 426.47362355 45.74720667 413.67066529 45.79074322 C326.15971087 46.08829009 238.64925506 46.31745601 16.98181409 45.83821094 C10.01621753 45.79157367 3.05058884 45.75275477 -3.91506106 45.71505886 C-11.75304402 45.67242719 -19.59098579 45.62446148 -27.42892265 45.57411003 C-30.64766121 45.55354883 -33.8664015 45.53489409 -37.08516121 45.51797676 C-40.75373082 45.4985077 -44.42224009 45.47439794 -48.09075546 45.44655991 C-50.04901429 45.43281887 -52.00730446 45.42379644 -53.96559143 45.41493225 C-55.13239441 45.40514343 -56.29919739 45.39535461 -57.50135803 45.38526917 C-58.50608186 45.37881661 -59.51080568 45.37236406 -60.54597569 45.36571598 C-63.56738128 45.21978724 -66.44544698 44.78075304 -69.41699219 44.22705078 C-68.79683111 31.4103885 -62.67332944 22.86011032 -53.41699219 14.22705078 C-37.86846466 1.83025181 -19.16212047 -0.09477092 0 0 Z " fill="#7B8E8D" transform="translate(283.4169921875,1647.77294921875)"/>
<path d="M0 0 C0.12528076 0.64735107 0.25056152 1.29470215 0.37963867 1.96166992 C1.87455367 9.65048218 3.41871139 17.32849124 5 25 C5.18691406 25.91136719 5.37382812 26.82273438 5.56640625 27.76171875 C11.26359038 54.98159846 20.28603398 82.24666018 35.56640625 105.62890625 C37 108 37 108 37 110 C35.84886719 110.53367187 34.69773437 111.06734375 33.51171875 111.6171875 C22.74391199 116.64323109 12.1935363 121.97920884 1.70751953 127.56542969 C-3.57548165 130.36461047 -8.88263289 133.1175541 -14.1875 135.875 C-15.2388916 136.4225293 -16.2902832 136.97005859 -17.37353516 137.53417969 C-22.89281386 140.40402757 -28.42660599 143.23666453 -34 146 C-39.92254335 136.65259931 -45.43602414 127.08165792 -50.94555664 117.48681641 C-55.56644295 109.45251156 -60.25982031 101.46472874 -65 93.5 C-71.62897461 82.35719836 -78.13922044 71.15234891 -84.59765625 59.91015625 C-88.03719843 53.92376984 -91.51418418 47.9595353 -95 42 C-75.435168 21.18946708 -28.67466404 0 0 0 Z " fill="#000000" transform="translate(477,118)"/>
<path d="M0 0 C174.24 0 348.48 0 528 0 C533 10 533 10 534 18 C355.14 18 176.28 18 -8 18 C-7.01 17.67 -6.02 17.34 -5 17 C-4.9175 15.865625 -4.835 14.73125 -4.75 13.5625 C-4 9 -4 9 0 0 Z " fill="#5B6F70" transform="translate(373,2121)"/>
<path d="M0 0 C18.48 0 36.96 0 56 0 C66.44961103 22.06028996 66.44961103 22.06028996 68.875 29.6875 C69.143125 30.46931641 69.41125 31.25113281 69.6875 32.05664062 C73.81546838 44.65095192 75.5124396 57.22756469 75.39111328 70.42724609 C75.37499733 72.50034288 75.39110168 74.57149168 75.41015625 76.64453125 C75.42551984 86.39028751 74.11612479 95.49916594 72 105 C71.81195801 105.85964355 71.62391602 106.71928711 71.43017578 107.60498047 C68.43493479 120.51227751 63.28096335 131.67775219 58 144 C39.52 144 21.04 144 2 144 C2.70719292 140.4640354 3.23329481 138.15501576 4.63671875 135.015625 C8.76099039 125.46371851 12.02527859 116.00708493 14.4375 105.875 C14.68395264 104.84536133 14.93040527 103.81572266 15.18432617 102.75488281 C22.70581936 69.75977939 16.90019263 35.49624819 1.29296875 5.74609375 C0 3 0 3 0 0 Z " fill="#7A8E8D" transform="translate(278,1812)"/>
<path d="M0 0 C50.91480755 -0.04577539 101.82961301 -0.08101817 152.74443709 -0.10213066 C158.75508049 -0.10463208 164.76572385 -0.10722072 170.77636719 -0.10986328 C172.57128732 -0.11065021 172.57128732 -0.11065021 174.40246846 -0.11145304 C193.77913216 -0.1201562 213.15578399 -0.1359257 232.53244065 -0.15430559 C252.41392637 -0.1730071 272.29540587 -0.18411726 292.17690003 -0.18817699 C304.44531701 -0.19092152 316.71370046 -0.19959074 328.98210712 -0.21583293 C337.39443264 -0.22640289 345.80674082 -0.22960059 354.21907251 -0.22700275 C359.07287303 -0.22572149 363.92661494 -0.22768899 368.78040504 -0.23841095 C373.22690889 -0.2481614 377.67331483 -0.24862323 382.11982323 -0.24179779 C383.72564526 -0.24095451 385.33147345 -0.24347632 386.93728338 -0.24976636 C410.01523032 -0.33488369 410.01523032 -0.33488369 419 6 C422.9048899 10.49062338 423 11.7651602 423 18 C285.06 18 147.12 18 5 18 C1 5 1 5 0 0 Z " fill="#A8BCBB" transform="translate(902,2121)"/>
<path d="M0 0 C6.08319468 5.01838913 10.00314627 9.61909347 10.90625 17.56640625 C11.28350552 28.12956072 9.27006301 35.38742911 2.47265625 43.48828125 C-10.64440481 57.1849833 -29.75399071 63.95291711 -48.46951294 64.36730957 C-51.93729759 64.36665934 -55.4035615 64.33463834 -58.87109375 64.29296875 C-60.82620757 64.27992665 -62.78132173 64.26690442 -64.73644257 64.25496101 C-69.50508959 64.22476846 -74.27357198 64.18492449 -79.04199219 64.12939453 C-100.93037508 63.85983161 -100.93037508 63.85983161 -122.46484375 67.30078125 C-113.20542225 47.81779417 -90.82995995 29.5251754 -73.46484375 17.30078125 C-72.87574219 16.87796875 -72.28664063 16.45515625 -71.6796875 16.01953125 C-53.00702791 2.69890785 -22.30836045 -15.37898066 0 0 Z " fill="#7A8E8D" transform="translate(498.46484375,562.69921875)"/>
<path d="M0 0 C1.32 3.96 2.64 7.92 4 12 C-34.56921281 12.13049477 -73.13843424 12.25808887 -111.70766819 12.38218227 C-116.36964669 12.39718411 -121.03162513 12.41220818 -125.69360352 12.42724609 C-126.62085534 12.43023671 -127.54810717 12.43322732 -128.50345754 12.43630856 C-141.30642297 12.4776467 -154.10938399 12.52015592 -166.91234212 12.56369251 C-254.41410408 12.86120587 -341.9154578 13.09436499 -563.94044453 12.55461836 C-572.76575262 12.48952685 -581.59110474 12.43138647 -590.41646087 12.37324238 C-608.27768965 12.25544109 -626.13886163 12.13079203 -644 12 C-644 11.67 -644 11.34 -644 11 C-590.54 11 -537.08 11 -482 11 C-481.67 8.03 -481.34 5.06 -481 2 C-479.27171956 0.27171956 -477.04910311 0.87061628 -474.74429548 0.85823581 C-473.60161315 0.85976981 -473.60161315 0.85976981 -472.43584633 0.8613348 C-471.63023703 0.85849258 -470.82462772 0.85565036 -469.99460602 0.85272202 C-467.26011673 0.84431447 -464.52566947 0.8431021 -461.79116821 0.84178162 C-459.82491243 0.83722036 -457.85865761 0.83222099 -455.89240396 0.82681805 C-450.46190658 0.81317744 -445.03141549 0.80580152 -439.60090542 0.79939139 C-433.75485936 0.79141317 -427.90882651 0.77770645 -422.06278992 0.76467896 C-411.92436764 0.74287842 -401.78594406 0.72474689 -391.64751053 0.70907402 C-376.98558743 0.68640349 -362.32367784 0.65825952 -347.66176705 0.62875474 C-323.87217426 0.58094851 -300.08257507 0.53777732 -276.29296875 0.49731445 C-253.18456556 0.4579998 -230.0761677 0.41658285 -206.96777344 0.37231445 C-206.25608948 0.37095192 -205.54440553 0.36958939 -204.8111554 0.36818558 C-197.66399873 0.35449995 -190.51684215 0.34077207 -183.36968563 0.32701423 C-168.80141974 0.29897301 -154.23315327 0.2712329 -139.66488647 0.2436676 C-138.99479818 0.2423994 -138.32470988 0.2411312 -137.63431588 0.23982458 C-107.46015372 0.18274066 -77.2859864 0.12870198 -47.11181641 0.07592773 C-45.97289649 0.07393328 -44.83397656 0.07193883 -43.66054392 0.06988394 C-36.26129576 0.05693041 -28.86204747 0.04405383 -21.46279907 0.03123474 C-20.52184472 0.02959837 -19.58089037 0.027962 -18.61142226 0.02627604 C-16.01289354 0.02176407 -13.41436476 0.01728752 -10.81583595 0.01282406 C-10.05873007 0.01150556 -9.30162418 0.01018706 -8.52157569 0.00882861 C-5.68104562 0.00398404 -2.84053488 0 0 0 Z " fill="#5D7172" transform="translate(864,1681)"/>
<path d="M0 0 C109.56 0 219.12 0 332 0 C330.83870968 8.12903226 330.83870968 8.12903226 326 12 C320.11873071 16.00718878 314.01955501 15.4125804 307.17472839 15.36749268 C305.86765421 15.37076152 304.56058002 15.37403036 303.21389753 15.37739825 C299.59218911 15.38603744 295.97073761 15.37598932 292.34905159 15.36285591 C288.4411206 15.35195199 284.53321318 15.35837172 280.62527466 15.36264038 C272.97353959 15.36827256 265.32190476 15.35796214 257.67018678 15.34235242 C248.76530284 15.32482027 239.86043837 15.32339334 230.95553986 15.32273683 C215.07393523 15.32104898 199.19237631 15.30523453 183.31079102 15.28125 C167.88630799 15.25797259 152.46185396 15.24382253 137.03735352 15.24023438 C136.08664367 15.24001161 135.13593383 15.23978884 134.15641459 15.23955932 C132.24129619 15.23911673 130.3261778 15.23867471 128.4110594 15.23823325 C126.99412415 15.2379039 126.99412415 15.2379039 125.54856396 15.2375679 C124.60638284 15.23735192 123.66420172 15.23713593 122.69346965 15.2369134 C108.00935077 15.2332169 93.32523658 15.22185869 78.64112284 15.2094375 C73.31186662 15.20499654 67.98261083 15.20156066 62.65335348 15.19881538 C54.20497915 15.19439132 45.75662216 15.18664681 37.30825879 15.17204097 C33.44590687 15.16541564 29.58357031 15.16036511 25.72121239 15.15958023 C21.54423796 15.15865379 17.36731699 15.14999359 13.19035339 15.14044189 C11.33904297 15.14174162 11.33904297 15.14174162 9.45033234 15.1430676 C7.78609128 15.13730588 7.78609128 15.13730588 6.08822918 15.13142776 C5.12281505 15.13018127 4.15740093 15.12893477 3.16273183 15.1276505 C1 15 1 15 0 14 C0 9.38 0 4.76 0 0 Z " fill="#3A4D4F" transform="translate(868,1693)"/>
<path d="M0 0 C1.06618431 -0.00170885 2.13236862 -0.0034177 3.23086154 -0.00517833 C6.77913015 -0.0084547 10.32720678 0.0024999 13.87545776 0.01345825 C16.42862443 0.01402277 18.98179141 0.01370502 21.53495789 0.01257324 C27.01928241 0.01211881 32.50354586 0.0177665 37.98785782 0.02904892 C45.9170948 0.04535041 53.8463088 0.05051667 61.77556072 0.0530249 C74.64236892 0.05739473 87.50915166 0.07068446 100.37594604 0.08963013 C112.86975986 0.10800739 125.36356674 0.12215485 137.85739136 0.13064575 C139.01389829 0.13143392 139.01389829 0.13143392 140.19376899 0.13223802 C144.06193706 0.13484822 147.93010518 0.13737561 151.79827332 0.13986182 C183.85380512 0.16057214 215.90930563 0.19577821 247.96481323 0.24050903 C247.77145386 0.79738403 247.57809448 1.35425903 247.37887573 1.92800903 C246.98828979 3.07269653 246.98828979 3.07269653 246.58981323 4.24050903 C246.33457886 4.98300903 246.07934448 5.72550903 245.81637573 6.49050903 C244.71976245 10.03186569 243.86395556 13.64393974 242.96481323 17.24050903 C151.88481323 17.24050903 60.80481323 17.24050903 -33.03518677 17.24050903 C-33.03518677 10.03319196 -33.03518677 10.03319196 -31.03518677 7.24050903 C-29.00393677 5.82644653 -29.00393677 5.82644653 -26.53518677 4.61550903 C-25.74112427 4.21074341 -24.94706177 3.80597778 -24.12893677 3.38894653 C-16.23440566 0.45840089 -8.35011987 -0.04970754 0 0 Z " fill="#A8BCBB" transform="translate(125.03518676757813,2120.759490966797)"/>
<path d="M0 0 C41.28390363 -0.09153637 82.56779555 -0.16202899 123.85178054 -0.20426132 C128.72467352 -0.2092642 133.5975663 -0.21444149 138.47045898 -0.21972656 C139.92562943 -0.22130043 139.92562943 -0.22130043 141.41019725 -0.22290608 C157.12239191 -0.24031585 172.83452808 -0.27185669 188.54668803 -0.30861118 C204.66634507 -0.34600469 220.78597147 -0.36823249 236.90567011 -0.37635398 C246.85405313 -0.38184505 256.80227086 -0.39919408 266.75060301 -0.43166587 C273.57064458 -0.45279411 280.39060058 -0.45920387 287.21067251 -0.45400551 C291.14674604 -0.45144109 295.08253052 -0.45539851 299.01855278 -0.4768219 C302.62307973 -0.49629776 306.22712345 -0.49726369 309.83167272 -0.48359558 C311.75120072 -0.4811072 313.67072309 -0.49835005 315.59016854 -0.51632524 C322.27505472 -0.46986989 326.71341877 -0.2583415 332 4 C333.65 6.31 335.3 8.62 337 11 C227.11 11 117.22 11 4 11 C0 1 0 1 0 0 Z " fill="#A8BCBC" transform="translate(864,1682)"/>
<path d="M0 0 C136.95 0 273.9 0 415 0 C407.0743787 7.9256213 401.23611298 8.38419998 390.44575739 8.38724393 C388.88933317 8.37868649 387.33291048 8.36984974 385.77648926 8.36076355 C384.11141357 8.36207258 382.44633849 8.36470079 380.78126669 8.36853105 C376.21582928 8.37522885 371.6506036 8.36325304 367.08519316 8.34819686 C362.15822587 8.33523061 357.23127033 8.33962638 352.30429077 8.34190369 C343.77129797 8.34347605 335.23837404 8.33407071 326.70539856 8.31719017 C314.36818849 8.29279972 302.03101169 8.28499485 289.69378012 8.2812262 C269.67701944 8.27466179 249.66029545 8.2547009 229.64355469 8.22631836 C210.20019718 8.19877752 190.75684964 8.17754405 171.31347656 8.16479492 C170.11480613 8.16400675 168.91613569 8.16321858 167.68114191 8.16240653 C161.66771041 8.15849139 155.65427883 8.15470027 149.64084721 8.15097082 C99.76053944 8.11987525 49.88027151 8.06703972 0 8 C0 5.36 0 2.72 0 0 Z " fill="#374B4B" transform="translate(908,2139)"/>
<path d="M0 0 C0.33 0.66 0.66 1.32 1 2 C85.645 2.495 85.645 2.495 172 3 C171.34 3.33 170.68 3.66 170 4 C169.56845773 6.74936305 169.56845773 6.74936305 169.4375 9.9375 C169.09446694 15.81106613 169.09446694 15.81106613 168 18 C148.45025454 18.09351272 128.90055458 18.16401319 109.35063171 18.20724869 C100.2729036 18.22785882 91.1953146 18.25594973 82.11767578 18.30175781 C74.20401095 18.34167309 66.29044689 18.36744408 58.37668419 18.37635398 C54.18780414 18.38156081 49.99921232 18.39376624 45.8104248 18.42292023 C41.86400281 18.45016362 37.91798652 18.45842712 33.97147942 18.45243073 C32.52674082 18.45352699 31.08198801 18.4614279 29.63733101 18.4768219 C20.36203415 18.57077131 13.49353153 18.37831278 6.5625 11.625 C4.81963164 8.69698116 4.31375259 6.37284037 4 3 C2.68 3 1.36 3 0 3 C0 2.01 0 1.02 0 0 Z " fill="#374B4C" transform="translate(213,1690)"/>
<path d="M0 0 C34.60012578 -0.02287303 69.20024983 -0.04050162 103.80038153 -0.05106533 C107.88230189 -0.05231608 111.96422224 -0.0536104 116.04614258 -0.05493164 C116.85880286 -0.05519395 117.67146315 -0.05545626 118.50874951 -0.05572652 C131.67903951 -0.06008159 144.84932517 -0.06796825 158.01961259 -0.0771528 C171.52666502 -0.08649385 185.03371518 -0.09205657 198.54077071 -0.09408849 C206.87992267 -0.09546278 215.21906234 -0.09980829 223.55821051 -0.10791647 C229.27136808 -0.11318949 234.98451926 -0.11480302 240.69767908 -0.11350138 C243.99721955 -0.11285887 247.29673384 -0.11440681 250.59627151 -0.11920547 C254.16855333 -0.124148 257.74078164 -0.12299616 261.31306458 -0.12025452 C262.36266399 -0.12316736 263.4122634 -0.1260802 264.49366885 -0.12908131 C265.92385397 -0.12609474 265.92385397 -0.12609474 267.38293171 -0.12304783 C268.20806399 -0.12342755 269.03319626 -0.12380727 269.88333255 -0.1241985 C272 0 272 0 275 1 C275 3.64 275 6.28 275 9 C241.75894485 9.09157442 208.51792111 9.1620483 175.27676782 9.20426132 C171.35150386 9.20926409 167.42624015 9.21444138 163.50097656 9.21972656 C162.32881268 9.22130043 162.32881268 9.22130043 161.13296872 9.22290608 C148.48334232 9.24030682 135.83378871 9.27184268 123.18420547 9.30861118 C110.20258893 9.34602984 97.22101047 9.3682378 84.23934221 9.37635398 C76.23024719 9.38183985 68.22135791 9.39916048 60.21232623 9.43166587 C54.0688583 9.45532815 47.92554691 9.4578175 41.78203964 9.45243073 C39.26334746 9.4535315 36.74464751 9.46149247 34.22600174 9.4768219 C30.78657125 9.49672941 27.34802027 9.49193543 23.90856934 9.48101807 C22.91244361 9.49266943 21.91631789 9.5043208 20.89000654 9.51632524 C13.18240178 9.45021893 7.56593764 7.71598096 2 2.25 C1.34 1.5075 0.68 0.765 0 0 Z " fill="#394B4D" transform="translate(93,2138)"/>
<path d="M0 0 C1.53810581 0.00141206 3.07621499 0.0006154 4.61431885 -0.00221252 C8.77103596 -0.00364193 12.92702563 0.0256699 17.0835743 0.06065726 C21.43438107 0.09200066 25.78520614 0.09485778 30.1361084 0.1007843 C38.36667289 0.11629937 46.5969037 0.15729599 54.82732153 0.20753175 C64.20092113 0.26349816 73.57453701 0.29093003 82.94826221 0.31600893 C102.22285849 0.36821408 121.49714457 0.45611066 140.77148438 0.56762695 C140.11148438 3.86762695 139.45148438 7.16762695 138.77148438 10.56762695 C84.65148437 10.56762695 30.53148437 10.56762695 -25.22851562 10.56762695 C-23.15106865 5.37400951 -22.43030676 4.14876882 -17.87385559 1.54313087 C-12.16636422 -0.56158167 -6.0017086 -0.07732635 0 0 Z " fill="#A8BCBB" transform="translate(243.228515625,1681.432373046875)"/>
<path d="M0 0 C15.32378889 3.60175793 30.59662829 9.27641186 44.57275391 16.52246094 C41.90649447 18.65012769 39.42773295 20.1580564 36.26416016 21.42480469 C35.44125488 21.75593262 34.61834961 22.08706055 33.77050781 22.42822266 C32.90087402 22.76869629 32.03124023 23.10916992 31.13525391 23.45996094 C30.23726074 23.8133252 29.33926758 24.16668945 28.4140625 24.53076172 C16.90384905 29.00798889 5.91095908 32.2826655 -6.42724609 33.52246094 C-7.71501953 33.66748047 -7.71501953 33.66748047 -9.02880859 33.81542969 C-14.16522507 34.14197163 -17.56408444 32.99360013 -21.76318359 29.99902344 C-24.87202941 27.2404701 -26.11559031 24.57386611 -26.73583984 20.49121094 C-27.08940475 14.40560885 -25.57500922 8.74468113 -22.42724609 3.52246094 C-16.28423315 -2.66343517 -7.99329228 -1.5726091 0 0 Z " fill="#798D8C" transform="translate(390.42724609375,417.4775390625)"/>
<path d="M0 0 C0.66 0 1.32 0 2 0 C3.26305335 5.07476794 4.27036084 9.72796354 4 15 C1.73625389 12.73625389 1.51648574 11.68987631 0.875 8.625 C0.70742187 7.85414063 0.53984375 7.08328125 0.3671875 6.2890625 C0 4 0 4 0 0 Z " fill="#9CA6A6" transform="translate(1259,816)"/>
</svg>
